<svg xmlns="http://www.w3.org/2000/svg" width="1010" height="1047" viewBox="0 0 1010 1047" version="1.1"><path d="M 454.500 78.403 C 422.283 90.588, 408.782 96.962, 394.158 106.892 L 388.017 111.063 388.642 102.264 C 389.690 87.502, 386.560 87.564, 370.637 102.623 C 365.062 107.896, 358.475 113.621, 356 115.344 C 351.559 118.437, 351.335 118.479, 339 118.547 C 325.629 118.620, 321.031 119.799, 312.082 125.448 C 302.870 131.263, 293.996 141.833, 290.190 151.523 C 288.367 156.164, 287.953 156.541, 283.870 157.273 C 281.466 157.704, 275.095 157.593, 269.711 157.028 C 249.384 154.893, 246.078 155.727, 233.922 166.052 C 214.370 182.659, 159.728 236.808, 156.778 242.500 C 155.637 244.700, 153.430 250.270, 151.872 254.877 C 150.315 259.485, 147.829 265.335, 146.349 267.877 C 143.738 272.361, 127.769 288.756, 99.965 315.500 C 84.314 330.553, 76.409 340.631, 69.328 354.557 C 56.501 379.783, 51.987 399.421, 39.342 485 C 38.911 487.914, 39.917 490.592, 45.349 501 C 62.061 533.016, 74.913 570.391, 76.657 592.046 C 77.406 601.342, 76.001 603.532, 69.821 602.703 L 66 602.190 66 615.046 C 66 635.364, 65.063 632.558, 92.625 694.766 C 111.463 737.285, 121.094 760.758, 128.516 782.250 C 132.603 794.085, 133.559 796.001, 135.382 796.007 C 139.237 796.019, 144.706 800.708, 147.864 806.709 C 148.503 807.924, 149.728 812.615, 150.585 817.135 C 156.852 850.169, 172.630 873.362, 195.192 882.705 C 200.918 885.076, 203.254 885.386, 220.500 886.066 C 230.950 886.478, 240.863 887.247, 242.528 887.774 C 247.464 889.337, 253.709 892.806, 257.361 896.012 C 268.696 905.964, 293.197 914.396, 305.869 912.707 C 309.038 912.285, 313.015 914.039, 337.124 926.499 C 352.318 934.350, 369.489 943.750, 375.283 947.387 C 386.383 954.355, 389.907 955.299, 392.688 952.051 C 395.199 949.119, 396 950.451, 396 957.559 C 396 961.102, 396.113 963.997, 396.250 963.994 C 396.387 963.991, 406.400 962.865, 418.500 961.491 C 446.554 958.307, 473.156 957.373, 491.680 958.921 C 505.051 960.039, 525.298 963.594, 531.143 965.849 C 533.073 966.594, 535.070 966.482, 538.552 965.434 C 544.089 963.768, 553.584 963.607, 559.942 965.073 C 565.496 966.353, 576.263 971.045, 583.851 975.492 C 587.293 977.509, 591.733 979.161, 594.812 979.569 C 601.466 980.452, 603.210 979.164, 602.799 973.668 L 602.500 969.662 608.344 967.293 C 614.522 964.789, 635.096 960, 639.674 960 C 641.754 960, 644.134 961.837, 649.941 967.924 C 654.098 972.283, 658.513 976.138, 659.750 976.492 C 661.932 977.115, 662 976.922, 662 970.035 C 662 955.900, 666.094 952.264, 680.750 953.382 L 689 954.012 689.070 946.256 C 689.109 941.990, 689.446 937.740, 689.820 936.812 C 690.583 934.917, 707.917 915.952, 718.004 905.976 C 721.632 902.388, 726.828 897.969, 729.550 896.156 L 734.500 892.858 741.721 900.679 L 748.942 908.500 748.961 904.500 C 748.988 898.994, 744.789 890.419, 739.348 884.868 C 733.096 878.490, 733.602 877.297, 744 873.887 C 754.915 870.308, 760.539 870.198, 765.360 873.470 C 769.459 876.251, 769.632 876.122, 767.448 871.900 C 763.976 865.186, 768.860 861.808, 783.208 861 C 790.813 860.572, 793.520 860.012, 795.708 858.412 C 799.389 855.721, 801.926 850.434, 802.697 843.848 C 803.285 838.816, 804.037 837.636, 815.430 823.863 C 836.901 797.908, 850.665 777.245, 865.491 748.715 C 875.313 729.814, 892.808 689.474, 891.674 688.341 C 890.984 687.651, 881.867 695.281, 874.754 702.502 C 871.044 706.268, 865.687 712.758, 862.850 716.925 C 855.371 727.908, 853.214 730, 849.372 730 C 847.582 730, 845.840 729.550, 845.500 729 C 844.084 726.708, 842.920 728.483, 840.089 737.250 L 837.102 746.500 837.695 739.102 C 838.189 732.936, 838.056 731.845, 836.894 732.549 C 836.127 733.013, 824.925 741.555, 812 751.530 C 768.330 785.234, 730.525 812.620, 694.129 836.918 C 668.226 854.211, 664.974 856, 659.455 856 C 655.844 856, 654.742 855.470, 652.104 852.465 C 650.397 850.521, 649 848.496, 649 847.965 C 649 846.148, 647.408 847.004, 641.500 852 C 632.867 859.299, 629 858.810, 629 850.418 L 629 847 621.655 847 C 613.607 847, 612.448 847.674, 610.043 853.750 C 609.336 855.537, 608.406 857, 607.977 857 C 607.549 857, 606.268 855.425, 605.133 853.500 C 603.997 851.575, 602.646 850, 602.132 850 C 601.617 850, 600.883 852.701, 600.500 856.002 C 599.772 862.273, 598.593 864.377, 597.707 860.989 C 596.695 857.118, 592.868 859.171, 589.695 865.286 L 588.252 868.068 585.154 863.284 C 581.327 857.375, 573.590 848.771, 574.557 851.500 C 576.279 856.358, 577.238 861.938, 576.625 863.536 C 576.007 865.146, 575.827 865.154, 574.150 863.636 C 571.401 861.148, 571 861.577, 571 867.010 C 571 870.971, 570.541 872.384, 568.807 873.760 C 567.600 874.717, 564.040 877.893, 560.894 880.819 L 555.175 886.138 544.837 887.075 C 530.173 888.404, 521.225 889.766, 507.611 892.744 L 495.721 895.344 484.611 892.665 C 458.861 886.456, 428.032 881.334, 402.500 879.023 C 368.510 875.946, 355.759 873.378, 339.500 866.336 C 330.569 862.468, 315.284 854.455, 311.560 851.689 C 309.690 850.301, 309.732 850.190, 312.721 848.644 C 317.392 846.229, 320 842.339, 320 837.788 L 320 833.846 316.989 836.857 C 314.281 839.565, 307.102 841.933, 297.351 843.335 C 296.720 843.426, 285.695 833.574, 272.851 821.442 C 260.008 809.310, 239.150 789.750, 226.500 777.976 C 185.473 739.789, 152.054 705.001, 143.483 691.559 C 139.025 684.568, 134.264 674.407, 127.055 656.500 C 124.177 649.350, 120.035 639.386, 117.849 634.357 L 113.876 625.215 111.484 627.607 C 108.543 630.548, 106.626 630.626, 103.912 627.912 C 95.172 619.172, 99.518 604.071, 108.886 610.633 C 111.186 612.244, 111.210 612.227, 110.638 609.383 C 110.319 607.797, 108.201 593.450, 105.930 577.500 C 100.847 541.795, 100.904 540.332, 107.957 525.908 L 113.137 515.317 119.490 457.908 C 122.985 426.334, 126.822 395.775, 128.017 390 C 133.038 365.744, 145.237 335.513, 158.483 314.500 C 175.102 288.137, 192.714 268.407, 233.166 230.835 C 263.581 202.586, 264.385 201.946, 283.757 190.589 C 292.416 185.513, 308.500 176.034, 319.500 169.525 C 356.683 147.524, 381.721 135.790, 405.534 129.206 C 430.527 122.296, 441.124 120.894, 472.500 120.345 C 486.800 120.095, 500.164 119.454, 502.197 118.921 C 510.153 116.835, 514.018 109.386, 513.986 96.201 C 513.964 87.070, 513.476 86.126, 509.074 86.717 C 504.571 87.321, 500.743 85.530, 493 79.197 C 488.746 75.718, 478.170 69.770, 476.721 70.042 C 476.600 70.064, 466.600 73.827, 454.500 78.403 M 610.817 99.928 C 600.209 100.555, 597.311 101.873, 594.173 107.500 C 593.253 109.150, 592.479 110.596, 592.453 110.713 C 592.428 110.831, 590.178 110.236, 587.453 109.392 C 581.533 107.558, 564.631 108.301, 559.014 110.642 C 551.678 113.700, 548 119.179, 548 127.049 C 548 133.764, 550.010 137.782, 556.551 144.139 C 569.088 156.325, 584.670 162.554, 609.569 165.335 L 621.500 166.668 632.720 173.283 C 663.592 191.483, 685.183 205.971, 742.779 247.134 C 769.332 266.111, 784.219 276.138, 786.464 276.559 C 790.458 277.308, 794.973 275.987, 804.225 271.362 C 807.924 269.513, 811.186 268, 811.475 268 C 811.764 268, 812 271.619, 812 276.042 C 812 286.969, 814.245 297.062, 820.109 312.500 C 826.475 329.259, 830.112 334.501, 840.651 342.109 C 854.085 351.807, 858.032 358.660, 858.724 373.487 C 859.049 380.453, 858.680 384.203, 857.101 390 L 855.057 397.500 859.720 406.783 C 868.436 424.136, 879.905 439.488, 890.190 447.568 C 893.385 450.079, 896.023 452.890, 896.050 453.816 C 896.470 467.870, 900.663 472.571, 907.195 466.313 L 910 463.626 909.991 466.063 C 909.987 467.403, 909.308 474.125, 908.483 481 C 906.182 500.184, 906.455 526.927, 908.967 528.480 C 909.372 528.730, 910 524.413, 910.362 518.886 C 911.196 506.167, 914.509 482.348, 917.161 470 C 918.931 461.763, 924.492 442.053, 926.551 436.717 C 927.864 433.315, 922.281 436.971, 919.410 441.393 C 915.542 447.351, 912.900 450, 910.826 450 C 909.136 450, 908.999 448.828, 908.990 434.250 C 908.977 414.568, 907.984 402.771, 902.932 362.275 L 898.913 330.051 853.500 257.275 C 808.227 184.723, 808.053 184.463, 796.794 172.572 C 770.244 144.531, 736.723 123.613, 696.405 109.926 C 666.337 99.719, 648.887 97.680, 610.817 99.928 M 477 417.500 C 477 424.833, 476.944 425, 474.500 425 C 472.111 425, 472 424.733, 472 419 C 472 415.700, 471.634 413, 471.187 413 C 469.600 413, 465.088 418.566, 463.081 423 C 461.443 426.618, 461.040 429.607, 461.022 438.250 L 461 449 483 449 L 505 449 504.990 438.250 C 504.982 429.058, 504.638 426.764, 502.616 422.421 C 501.315 419.628, 498.957 416.322, 497.375 415.075 L 494.500 412.807 494.202 418.904 C 493.923 424.627, 493.755 425, 491.452 425 C 489.067 425, 489 424.794, 489 417.500 C 489 410.667, 488.822 410, 487 410 C 485.178 410, 485 410.667, 485 417.500 C 485 424.333, 484.822 425, 483 425 C 481.178 425, 481 424.333, 481 417.500 C 481 410.667, 480.822 410, 479 410 C 477.178 410, 477 410.667, 477 417.500 M 461 464.134 C 461 475.931, 462.132 480.491, 466.321 485.573 C 470.292 490.391, 476.086 492.956, 483 492.956 C 489.914 492.956, 495.708 490.391, 499.679 485.573 C 503.868 480.491, 505 475.931, 505 464.134 L 505 454 483 454 L 461 454 461 464.134 M 441 473.790 C 441 477.388, 444.135 487.477, 446.740 492.264 C 451.821 501.598, 462.801 509.625, 474.188 512.330 L 479 513.473 479 520.237 L 479 527 469 527 L 459 527 459 531.500 L 459 536 483 536 L 507 536 507 531.500 L 507 527 497 527 L 487 527 487 520.237 L 487 513.473 492.163 512.247 C 499.704 510.455, 505.389 507.411, 511.329 501.983 C 517.380 496.452, 521.281 489.858, 523.467 481.465 C 525.830 472.394, 525.712 472, 520.639 472 L 516.279 472 515.696 476.922 C 514.497 487.043, 506.300 497.702, 496.176 502.303 C 489.581 505.301, 476.419 505.301, 469.824 502.303 C 459.700 497.702, 451.503 487.043, 450.304 476.922 L 449.721 472 445.361 472 C 441.837 472, 441 472.344, 441 473.790 M 676.333 550.097 C 671.540 551.485, 668 556.281, 668 561.386 C 668 563.713, 668.661 566.491, 669.468 567.559 C 671.761 570.591, 671.348 571, 666 571 L 661 571 661 574.500 C 661 577.914, 661.098 578, 664.980 578 L 668.960 578 669.230 599.250 L 669.500 620.500 673.750 620.807 L 678 621.115 678 599.557 L 678 578 687.500 578 C 696.198 578, 697 577.838, 697 576.082 C 697 575.027, 697.273 573.452, 697.607 572.582 C 698.137 571.201, 696.878 571, 687.714 571 C 676.194 571, 676 570.894, 676 564.593 C 676 558.202, 683.118 554.891, 692.383 556.972 C 695.068 557.575, 697.434 557.900, 697.640 557.694 C 697.845 557.488, 697.735 555.924, 697.394 554.218 C 696.841 551.454, 696.236 551.002, 691.837 550.059 C 686.025 548.812, 680.727 548.825, 676.333 550.097 M 329.200 551.200 C 328.540 551.860, 328 553.896, 328 555.725 C 328 558.396, 328.518 559.246, 330.635 560.051 C 334.280 561.437, 338 558.975, 338 555.177 C 338 551.703, 336.355 550, 333 550 C 331.570 550, 329.860 550.540, 329.200 551.200 M 644.035 551.934 C 641.336 556.977, 645.197 562.016, 650.279 560.084 C 654.158 558.609, 654.928 553.063, 651.573 550.765 C 649.439 549.304, 645.081 549.980, 644.035 551.934 M 512 586 L 512 621 516 621 L 520 621 520 586 L 520 551 516 551 L 512 551 512 586 M 451 587.110 L 451 621.219 469.250 620.839 C 486.330 620.483, 487.772 620.304, 491.750 618.045 C 499.341 613.734, 502.247 602.655, 498.344 592.902 C 496.990 589.517, 495.761 588.332, 491.594 586.392 C 487.897 584.670, 487.145 584.017, 488.850 584.010 C 492.512 583.995, 497.557 578.254, 498.360 573.188 C 499.780 564.227, 495.217 556.264, 487.421 554.100 C 485.265 553.501, 476.188 553.009, 467.250 553.006 L 451 553 451 587.110 M 460 570.895 L 460 582 472.045 582 C 483.446 582, 484.220 581.871, 486.505 579.586 C 491.060 575.030, 491.014 567.240, 486.404 562.910 C 484.045 560.693, 482.884 560.472, 471.920 560.145 L 460 559.789 460 570.895 M 615.500 568.021 C 607.800 568.399, 600.600 569.065, 599.500 569.502 C 595.471 571.101, 590.752 575.349, 589.394 578.600 C 586.274 586.067, 588.664 597.201, 594.241 601.171 L 597.254 603.317 593.898 604.408 C 591.635 605.145, 590.223 606.412, 589.560 608.303 C 588.337 611.788, 589.501 613.913, 593.849 616.135 C 596.980 617.736, 596.998 617.784, 594.687 618.364 C 585.053 620.782, 583.344 633.024, 592.014 637.507 C 596.642 639.901, 609.072 641.124, 617.137 639.981 C 629.419 638.239, 633.500 634.830, 633.500 626.313 C 633.500 621.425, 633.159 620.531, 630.333 618.006 C 626.973 615.004, 622.994 613.963, 608.142 612.204 C 598.964 611.116, 595.681 609.294, 597.958 606.550 C 598.949 605.356, 601.351 605, 608.411 605 C 623.199 605, 629.889 600.380, 630.788 589.547 C 631.353 582.726, 629.704 578.401, 625.580 575.885 L 622.500 574.007 629.250 574.004 L 636 574 636 570.500 C 636 567.184, 635.829 567.009, 632.750 567.167 C 630.962 567.259, 623.200 567.643, 615.500 568.021 M 281.907 570.324 C 279.483 571.603, 276.521 574.094, 275.325 575.861 C 271.231 581.908, 269.815 595.348, 272.130 606.201 C 274.709 618.289, 288.127 624.870, 302.219 620.956 C 307.193 619.574, 311.880 615.473, 314.120 610.541 C 316.298 605.747, 316.746 587.221, 314.838 580.852 C 313.327 575.812, 307.978 570.366, 303.247 569.052 C 296.452 567.165, 286.808 567.740, 281.907 570.324 M 361.030 569.583 C 356.433 571.577, 354.225 573.678, 351.657 578.500 C 349.827 581.938, 349.525 584.191, 349.514 594.524 C 349.501 605.465, 349.730 606.995, 352.054 611.524 C 355.660 618.550, 361.083 621.477, 370.525 621.490 C 379.754 621.503, 385.539 619.054, 386.396 614.770 C 387.359 609.955, 387.218 609.848, 382.844 612.080 C 377.303 614.906, 367.846 615.007, 364.122 612.279 C 359.535 608.918, 358.003 604.468, 358.003 594.500 C 358.003 583.776, 359.736 579.381, 365 576.752 C 369.567 574.470, 376.436 574.561, 381.750 576.973 L 386 578.902 386 575.402 C 386 572.254, 385.573 571.708, 381.750 569.973 C 376.549 567.612, 366.031 567.414, 361.030 569.583 M 406.459 569.880 C 397.596 573.905, 394.431 581.783, 395.212 597.868 C 395.735 608.639, 397.029 612.062, 402.340 616.726 C 408.792 622.390, 422.582 623.490, 432.444 619.128 C 435.874 617.610, 436.829 616.607, 437.357 613.963 C 437.719 612.157, 437.855 610.522, 437.661 610.328 C 437.468 610.134, 435.113 610.947, 432.428 612.135 C 429.044 613.632, 425.534 614.294, 420.984 614.294 C 409.812 614.294, 404 609.933, 404 601.550 L 404 598 420.981 598 L 437.962 598 438.609 595.421 C 440.219 589.008, 436.850 576.885, 432.320 572.788 C 426.887 567.875, 414.050 566.431, 406.459 569.880 M 545.193 569.350 C 540.553 571.032, 535.539 576.257, 534.164 580.846 C 532.255 587.219, 532.701 605.745, 534.880 610.541 C 538.606 618.744, 546.489 622.621, 557.644 621.735 C 571.854 620.607, 577.913 612.470, 577.976 594.432 C 578.038 576.238, 570.989 567.978, 555.500 568.098 C 551.650 568.128, 547.012 568.691, 545.193 569.350 M 217.436 571.686 C 217.812 573.234, 221.546 584.981, 225.734 597.790 L 233.348 621.081 240.345 620.790 L 247.342 620.500 255.647 595 C 260.215 580.975, 263.963 569.388, 263.976 569.250 C 263.989 569.112, 262.006 569, 259.568 569 L 255.136 569 250.992 582.250 C 248.713 589.538, 245.465 599.910, 243.774 605.300 C 242.084 610.690, 240.355 614.740, 239.932 614.300 C 239.509 613.860, 236.067 603.600, 232.282 591.500 L 225.401 569.500 221.076 569.186 C 216.791 568.876, 216.758 568.899, 217.436 571.686 M 329 595 L 329 621 333 621 L 337 621 337 595 L 337 569 333 569 L 329 569 329 595 M 644 595.057 L 644 621.115 648.250 620.807 L 652.500 620.500 652.767 594.750 L 653.034 569 648.517 569 L 644 569 644 595.057 M 702.004 569.250 C 702.006 569.388, 705.779 580.525, 710.388 594 C 717.548 614.934, 719.076 618.547, 720.884 618.820 C 723.586 619.228, 723.573 619.372, 720 629.163 C 718.350 633.684, 717 637.773, 717 638.249 C 717 638.725, 718.913 638.977, 721.250 638.807 L 725.500 638.500 737.194 605 C 743.626 586.575, 748.913 570.912, 748.944 570.193 C 748.983 569.270, 747.777 568.976, 744.846 569.193 L 740.692 569.500 733.298 590.965 C 729.231 602.771, 725.728 612.605, 725.514 612.819 C 725.301 613.033, 721.904 603.261, 717.966 591.104 L 710.807 569 706.403 569 C 703.982 569, 702.002 569.112, 702.004 569.250 M 603.500 575.490 C 601.300 576.304, 599.365 576.977, 599.199 576.985 C 599.033 576.993, 598.246 578.561, 597.449 580.468 C 593.213 590.606, 598.772 599.003, 609.718 598.998 C 614.546 598.996, 620.116 596.213, 621.721 593 C 624.375 587.689, 622.455 578.384, 618.240 576.128 C 614.796 574.285, 607.597 573.973, 603.500 575.490 M 285.629 577.071 C 281.319 580.471, 280 584.724, 280.002 595.218 C 280.003 606.244, 281.693 610.597, 287 613.248 C 291.270 615.382, 295.914 615.481, 300.564 613.538 C 305.629 611.421, 307.951 605.767, 307.972 595.500 C 308.003 580.353, 305.064 575.851, 294.718 575.199 C 289.415 574.864, 288.077 575.140, 285.629 577.071 M 410.256 576.029 C 406.930 577.366, 404.008 582.844, 404.004 587.750 L 404 592 417 592 L 430 592 429.996 587.750 C 429.992 582.654, 427.032 577.343, 423.434 575.975 C 420.292 574.780, 413.291 574.809, 410.256 576.029 M 548.500 575.945 C 542.977 578.206, 540.604 585.008, 541.201 596.868 C 541.719 607.158, 543.639 611.533, 548.534 613.579 C 556.250 616.803, 564.820 614.069, 567.560 607.510 C 569.446 602.997, 569.485 587.097, 567.621 582.636 C 565.439 577.414, 561.595 574.989, 555.615 575.063 C 552.802 575.098, 549.600 575.495, 548.500 575.945 M 460 601 L 460 613 472.444 613 C 484.157 613, 485.053 612.858, 487.694 610.587 C 490.238 608.398, 490.500 607.561, 490.500 601.614 C 490.500 591.196, 486.911 589.069, 469.250 589.024 L 460 589 460 601 M 597.866 620.511 C 594.829 622.161, 593.479 626.158, 594.999 628.998 C 596.853 632.462, 600.108 633.416, 610.191 633.448 C 618.485 633.474, 620.288 633.177, 622.691 631.390 C 626.153 628.817, 626.786 625.021, 624.151 622.637 C 620.541 619.370, 602.632 617.922, 597.866 620.511 M 109 648.419 C 109 648.649, 110.575 652.124, 112.500 656.140 C 114.425 660.157, 116 664.963, 116 666.821 C 116 672.101, 118.726 676.616, 123.930 679.955 C 126.540 681.630, 128.979 683, 129.350 683 C 129.721 683, 128.974 681.313, 127.689 679.250 C 126.404 677.188, 123.146 670.393, 120.449 664.150 C 115.775 653.334, 112.340 648, 110.048 648 C 109.471 648, 109 648.188, 109 648.419 M 96.655 650.829 C 95.745 651.835, 95 652.984, 95 653.382 C 95 654.083, 105.947 668, 106.498 668 C 107.069 668, 101.715 651.440, 100.759 650.250 C 99.402 648.561, 98.606 648.673, 96.655 650.829" stroke="none" fill="#faf7f6" fill-rule="evenodd"/><path d="M -0 523.501 L -0 1047.002 505.250 1046.751 L 1010.500 1046.500 1010.751 523.250 L 1011.002 0 505.501 0 L 0 0 -0 523.501 M 0.496 524 C 0.496 811.925, 0.610 929.712, 0.750 785.750 C 0.890 641.787, 0.890 406.212, 0.750 262.250 C 0.610 118.287, 0.496 236.075, 0.496 524 M 454.500 78.403 C 422.283 90.588, 408.782 96.962, 394.158 106.892 L 388.017 111.063 388.642 102.264 C 389.690 87.502, 386.560 87.564, 370.637 102.623 C 365.062 107.896, 358.475 113.621, 356 115.344 C 351.559 118.437, 351.335 118.479, 339 118.547 C 325.629 118.620, 321.031 119.799, 312.082 125.448 C 302.870 131.263, 293.996 141.833, 290.190 151.523 C 288.367 156.164, 287.953 156.541, 283.870 157.273 C 281.466 157.704, 275.095 157.593, 269.711 157.028 C 249.384 154.893, 246.078 155.727, 233.922 166.052 C 214.370 182.659, 159.728 236.808, 156.778 242.500 C 155.637 244.700, 153.430 250.270, 151.872 254.877 C 150.315 259.485, 147.829 265.335, 146.349 267.877 C 143.738 272.361, 127.769 288.756, 99.965 315.500 C 84.314 330.553, 76.409 340.631, 69.328 354.557 C 56.501 379.783, 51.987 399.421, 39.342 485 C 38.911 487.914, 39.917 490.592, 45.349 501 C 62.061 533.016, 74.913 570.391, 76.657 592.046 C 77.406 601.342, 76.001 603.532, 69.821 602.703 L 66 602.190 66 615.046 C 66 635.364, 65.063 632.558, 92.625 694.766 C 111.463 737.285, 121.094 760.758, 128.516 782.250 C 132.603 794.085, 133.559 796.001, 135.382 796.007 C 139.237 796.019, 144.706 800.708, 147.864 806.709 C 148.503 807.924, 149.728 812.615, 150.585 817.135 C 156.852 850.169, 172.630 873.362, 195.192 882.705 C 200.918 885.076, 203.254 885.386, 220.500 886.066 C 230.950 886.478, 240.863 887.247, 242.528 887.774 C 247.464 889.337, 253.709 892.806, 257.361 896.012 C 268.696 905.964, 293.197 914.396, 305.869 912.707 C 309.038 912.285, 313.015 914.039, 337.124 926.499 C 352.318 934.350, 369.489 943.750, 375.283 947.387 C 386.383 954.355, 389.907 955.299, 392.688 952.051 C 395.199 949.119, 396 950.451, 396 957.559 C 396 961.102, 396.113 963.997, 396.250 963.994 C 396.387 963.991, 406.400 962.865, 418.500 961.491 C 446.554 958.307, 473.156 957.373, 491.680 958.921 C 505.051 960.039, 525.298 963.594, 531.143 965.849 C 533.073 966.594, 535.070 966.482, 538.552 965.434 C 544.089 963.768, 553.584 963.607, 559.942 965.073 C 565.496 966.353, 576.263 971.045, 583.851 975.492 C 587.293 977.509, 591.733 979.161, 594.812 979.569 C 601.466 980.452, 603.210 979.164, 602.799 973.668 L 602.500 969.662 608.344 967.293 C 614.522 964.789, 635.096 960, 639.674 960 C 641.754 960, 644.134 961.837, 649.941 967.924 C 654.098 972.283, 658.513 976.138, 659.750 976.492 C 661.932 977.115, 662 976.922, 662 970.035 C 662 955.900, 666.094 952.264, 680.750 953.382 L 689 954.012 689.070 946.256 C 689.109 941.990, 689.446 937.740, 689.820 936.812 C 690.583 934.917, 707.917 915.952, 718.004 905.976 C 721.632 902.388, 726.828 897.969, 729.550 896.156 L 734.500 892.858 741.721 900.679 L 748.942 908.500 748.961 904.500 C 748.988 898.994, 744.789 890.419, 739.348 884.868 C 733.096 878.490, 733.602 877.297, 744 873.887 C 754.915 870.308, 760.539 870.198, 765.360 873.470 C 769.459 876.251, 769.632 876.122, 767.448 871.900 C 763.976 865.186, 768.860 861.808, 783.208 861 C 790.813 860.572, 793.520 860.012, 795.708 858.412 C 799.389 855.721, 801.926 850.434, 802.697 843.848 C 803.285 838.816, 804.037 837.636, 815.430 823.863 C 836.901 797.908, 850.665 777.245, 865.491 748.715 C 875.313 729.814, 892.808 689.474, 891.674 688.341 C 890.984 687.651, 881.867 695.281, 874.754 702.502 C 871.044 706.268, 865.687 712.758, 862.850 716.925 C 855.371 727.908, 853.214 730, 849.372 730 C 847.582 730, 845.840 729.550, 845.500 729 C 844.084 726.708, 842.920 728.483, 840.089 737.250 L 837.102 746.500 837.695 739.102 C 838.189 732.936, 838.056 731.845, 836.894 732.549 C 836.127 733.013, 824.925 741.555, 812 751.530 C 768.330 785.234, 730.525 812.620, 694.129 836.918 C 668.226 854.211, 664.974 856, 659.455 856 C 655.844 856, 654.742 855.470, 652.104 852.465 C 650.397 850.521, 649 848.496, 649 847.965 C 649 846.148, 647.408 847.004, 641.500 852 C 632.867 859.299, 629 858.810, 629 850.418 L 629 847 621.655 847 C 613.607 847, 612.448 847.674, 610.043 853.750 C 609.336 855.537, 608.406 857, 607.977 857 C 607.549 857, 606.268 855.425, 605.133 853.500 C 603.997 851.575, 602.646 850, 602.132 850 C 601.617 850, 600.883 852.701, 600.500 856.002 C 599.772 862.273, 598.593 864.377, 597.707 860.989 C 596.695 857.118, 592.868 859.171, 589.695 865.286 L 588.252 868.068 585.154 863.284 C 581.327 857.375, 573.590 848.771, 574.557 851.500 C 576.279 856.358, 577.238 861.938, 576.625 863.536 C 576.007 865.146, 575.827 865.154, 574.150 863.636 C 571.401 861.148, 571 861.577, 571 867.010 C 571 870.971, 570.541 872.384, 568.807 873.760 C 567.600 874.717, 564.040 877.893, 560.894 880.819 L 555.175 886.138 544.837 887.075 C 530.173 888.404, 521.225 889.766, 507.611 892.744 L 495.721 895.344 484.611 892.665 C 458.861 886.456, 428.032 881.334, 402.500 879.023 C 368.510 875.946, 355.759 873.378, 339.500 866.336 C 330.569 862.468, 315.284 854.455, 311.560 851.689 C 309.690 850.301, 309.732 850.190, 312.721 848.644 C 317.392 846.229, 320 842.339, 320 837.788 L 320 833.846 316.989 836.857 C 314.281 839.565, 307.102 841.933, 297.351 843.335 C 296.720 843.426, 285.695 833.574, 272.851 821.442 C 260.008 809.310, 239.150 789.750, 226.500 777.976 C 185.473 739.789, 152.054 705.001, 143.483 691.559 C 139.025 684.568, 134.264 674.407, 127.055 656.500 C 124.177 649.350, 120.035 639.386, 117.849 634.357 L 113.876 625.215 111.484 627.607 C 108.543 630.548, 106.626 630.626, 103.912 627.912 C 95.172 619.172, 99.518 604.071, 108.886 610.633 C 111.186 612.244, 111.210 612.227, 110.638 609.383 C 110.319 607.797, 108.201 593.450, 105.930 577.500 C 100.847 541.795, 100.904 540.332, 107.957 525.908 L 113.137 515.317 119.490 457.908 C 122.985 426.334, 126.822 395.775, 128.017 390 C 133.038 365.744, 145.237 335.513, 158.483 314.500 C 175.102 288.137, 192.714 268.407, 233.166 230.835 C 263.581 202.586, 264.385 201.946, 283.757 190.589 C 292.416 185.513, 308.500 176.034, 319.500 169.525 C 356.683 147.524, 381.721 135.790, 405.534 129.206 C 430.527 122.296, 441.124 120.894, 472.500 120.345 C 486.800 120.095, 500.164 119.454, 502.197 118.921 C 510.153 116.835, 514.018 109.386, 513.986 96.201 C 513.964 87.070, 513.476 86.126, 509.074 86.717 C 504.571 87.321, 500.743 85.530, 493 79.197 C 488.746 75.718, 478.170 69.770, 476.721 70.042 C 476.600 70.064, 466.600 73.827, 454.500 78.403 M 610.817 99.928 C 600.209 100.555, 597.311 101.873, 594.173 107.500 C 593.253 109.150, 592.479 110.596, 592.453 110.713 C 592.428 110.831, 590.178 110.236, 587.453 109.392 C 581.533 107.558, 564.631 108.301, 559.014 110.642 C 551.678 113.700, 548 119.179, 548 127.049 C 548 133.764, 550.010 137.782, 556.551 144.139 C 569.088 156.325, 584.670 162.554, 609.569 165.335 L 621.500 166.668 632.720 173.283 C 663.592 191.483, 685.183 205.971, 742.779 247.134 C 769.332 266.111, 784.219 276.138, 786.464 276.559 C 790.458 277.308, 794.973 275.987, 804.225 271.362 C 807.924 269.513, 811.186 268, 811.475 268 C 811.764 268, 812 271.619, 812 276.042 C 812 286.969, 814.245 297.062, 820.109 312.500 C 826.475 329.259, 830.112 334.501, 840.651 342.109 C 854.085 351.807, 858.032 358.660, 858.724 373.487 C 859.049 380.453, 858.680 384.203, 857.101 390 L 855.057 397.500 859.720 406.783 C 868.436 424.136, 879.905 439.488, 890.190 447.568 C 893.385 450.079, 896.023 452.890, 896.050 453.816 C 896.470 467.870, 900.663 472.571, 907.195 466.313 L 910 463.626 909.991 466.063 C 909.987 467.403, 909.308 474.125, 908.483 481 C 906.182 500.184, 906.455 526.927, 908.967 528.480 C 909.372 528.730, 910 524.413, 910.362 518.886 C 911.196 506.167, 914.509 482.348, 917.161 470 C 918.931 461.763, 924.492 442.053, 926.551 436.717 C 927.864 433.315, 922.281 436.971, 919.410 441.393 C 915.542 447.351, 912.900 450, 910.826 450 C 909.136 450, 908.999 448.828, 908.990 434.250 C 908.977 414.568, 907.984 402.771, 902.932 362.275 L 898.913 330.051 853.500 257.275 C 808.227 184.723, 808.053 184.463, 796.794 172.572 C 770.244 144.531, 736.723 123.613, 696.405 109.926 C 666.337 99.719, 648.887 97.680, 610.817 99.928 M 477 417.500 C 477 424.833, 476.944 425, 474.500 425 C 472.111 425, 472 424.733, 472 419 C 472 415.700, 471.634 413, 471.187 413 C 469.600 413, 465.088 418.566, 463.081 423 C 461.443 426.618, 461.040 429.607, 461.022 438.250 L 461 449 483 449 L 505 449 504.990 438.250 C 504.982 429.058, 504.638 426.764, 502.616 422.421 C 501.315 419.628, 498.957 416.322, 497.375 415.075 L 494.500 412.807 494.202 418.904 C 493.923 424.627, 493.755 425, 491.452 425 C 489.067 425, 489 424.794, 489 417.500 C 489 410.667, 488.822 410, 487 410 C 485.178 410, 485 410.667, 485 417.500 C 485 424.333, 484.822 425, 483 425 C 481.178 425, 481 424.333, 481 417.500 C 481 410.667, 480.822 410, 479 410 C 477.178 410, 477 410.667, 477 417.500 M 461 464.134 C 461 475.931, 462.132 480.491, 466.321 485.573 C 470.292 490.391, 476.086 492.956, 483 492.956 C 489.914 492.956, 495.708 490.391, 499.679 485.573 C 503.868 480.491, 505 475.931, 505 464.134 L 505 454 483 454 L 461 454 461 464.134 M 441 473.790 C 441 477.388, 444.135 487.477, 446.740 492.264 C 451.821 501.598, 462.801 509.625, 474.188 512.330 L 479 513.473 479 520.237 L 479 527 469 527 L 459 527 459 531.500 L 459 536 483 536 L 507 536 507 531.500 L 507 527 497 527 L 487 527 487 520.237 L 487 513.473 492.163 512.247 C 499.704 510.455, 505.389 507.411, 511.329 501.983 C 517.380 496.452, 521.281 489.858, 523.467 481.465 C 525.830 472.394, 525.712 472, 520.639 472 L 516.279 472 515.696 476.922 C 514.497 487.043, 506.300 497.702, 496.176 502.303 C 489.581 505.301, 476.419 505.301, 469.824 502.303 C 459.700 497.702, 451.503 487.043, 450.304 476.922 L 449.721 472 445.361 472 C 441.837 472, 441 472.344, 441 473.790 M 676.333 550.097 C 671.540 551.485, 668 556.281, 668 561.386 C 668 563.713, 668.661 566.491, 669.468 567.559 C 671.761 570.591, 671.348 571, 666 571 L 661 571 661 574.500 C 661 577.914, 661.098 578, 664.980 578 L 668.960 578 669.230 599.250 L 669.500 620.500 673.750 620.807 L 678 621.115 678 599.557 L 678 578 687.500 578 C 696.198 578, 697 577.838, 697 576.082 C 697 575.027, 697.273 573.452, 697.607 572.582 C 698.137 571.201, 696.878 571, 687.714 571 C 676.194 571, 676 570.894, 676 564.593 C 676 558.202, 683.118 554.891, 692.383 556.972 C 695.068 557.575, 697.434 557.900, 697.640 557.694 C 697.845 557.488, 697.735 555.924, 697.394 554.218 C 696.841 551.454, 696.236 551.002, 691.837 550.059 C 686.025 548.812, 680.727 548.825, 676.333 550.097 M 329.200 551.200 C 328.540 551.860, 328 553.896, 328 555.725 C 328 558.396, 328.518 559.246, 330.635 560.051 C 334.280 561.437, 338 558.975, 338 555.177 C 338 551.703, 336.355 550, 333 550 C 331.570 550, 329.860 550.540, 329.200 551.200 M 644.035 551.934 C 641.336 556.977, 645.197 562.016, 650.279 560.084 C 654.158 558.609, 654.928 553.063, 651.573 550.765 C 649.439 549.304, 645.081 549.980, 644.035 551.934 M 512 586 L 512 621 516 621 L 520 621 520 586 L 520 551 516 551 L 512 551 512 586 M 451 587.110 L 451 621.219 469.250 620.839 C 486.330 620.483, 487.772 620.304, 491.750 618.045 C 499.341 613.734, 502.247 602.655, 498.344 592.902 C 496.990 589.517, 495.761 588.332, 491.594 586.392 C 487.897 584.670, 487.145 584.017, 488.850 584.010 C 492.512 583.995, 497.557 578.254, 498.360 573.188 C 499.780 564.227, 495.217 556.264, 487.421 554.100 C 485.265 553.501, 476.188 553.009, 467.250 553.006 L 451 553 451 587.110 M 460 570.895 L 460 582 472.045 582 C 483.446 582, 484.220 581.871, 486.505 579.586 C 491.060 575.030, 491.014 567.240, 486.404 562.910 C 484.045 560.693, 482.884 560.472, 471.920 560.145 L 460 559.789 460 570.895 M 615.500 568.021 C 607.800 568.399, 600.600 569.065, 599.500 569.502 C 595.471 571.101, 590.752 575.349, 589.394 578.600 C 586.274 586.067, 588.664 597.201, 594.241 601.171 L 597.254 603.317 593.898 604.408 C 591.635 605.145, 590.223 606.412, 589.560 608.303 C 588.337 611.788, 589.501 613.913, 593.849 616.135 C 596.980 617.736, 596.998 617.784, 594.687 618.364 C 585.053 620.782, 583.344 633.024, 592.014 637.507 C 596.642 639.901, 609.072 641.124, 617.137 639.981 C 629.419 638.239, 633.500 634.830, 633.500 626.313 C 633.500 621.425, 633.159 620.531, 630.333 618.006 C 626.973 615.004, 622.994 613.963, 608.142 612.204 C 598.964 611.116, 595.681 609.294, 597.958 606.550 C 598.949 605.356, 601.351 605, 608.411 605 C 623.199 605, 629.889 600.380, 630.788 589.547 C 631.353 582.726, 629.704 578.401, 625.580 575.885 L 622.500 574.007 629.250 574.004 L 636 574 636 570.500 C 636 567.184, 635.829 567.009, 632.750 567.167 C 630.962 567.259, 623.200 567.643, 615.500 568.021 M 281.907 570.324 C 279.483 571.603, 276.521 574.094, 275.325 575.861 C 271.231 581.908, 269.815 595.348, 272.130 606.201 C 274.709 618.289, 288.127 624.870, 302.219 620.956 C 307.193 619.574, 311.880 615.473, 314.120 610.541 C 316.298 605.747, 316.746 587.221, 314.838 580.852 C 313.327 575.812, 307.978 570.366, 303.247 569.052 C 296.452 567.165, 286.808 567.740, 281.907 570.324 M 361.030 569.583 C 356.433 571.577, 354.225 573.678, 351.657 578.500 C 349.827 581.938, 349.525 584.191, 349.514 594.524 C 349.501 605.465, 349.730 606.995, 352.054 611.524 C 355.660 618.550, 361.083 621.477, 370.525 621.490 C 379.754 621.503, 385.539 619.054, 386.396 614.770 C 387.359 609.955, 387.218 609.848, 382.844 612.080 C 377.303 614.906, 367.846 615.007, 364.122 612.279 C 359.535 608.918, 358.003 604.468, 358.003 594.500 C 358.003 583.776, 359.736 579.381, 365 576.752 C 369.567 574.470, 376.436 574.561, 381.750 576.973 L 386 578.902 386 575.402 C 386 572.254, 385.573 571.708, 381.750 569.973 C 376.549 567.612, 366.031 567.414, 361.030 569.583 M 406.459 569.880 C 397.596 573.905, 394.431 581.783, 395.212 597.868 C 395.735 608.639, 397.029 612.062, 402.340 616.726 C 408.792 622.390, 422.582 623.490, 432.444 619.128 C 435.874 617.610, 436.829 616.607, 437.357 613.963 C 437.719 612.157, 437.855 610.522, 437.661 610.328 C 437.468 610.134, 435.113 610.947, 432.428 612.135 C 429.044 613.632, 425.534 614.294, 420.984 614.294 C 409.812 614.294, 404 609.933, 404 601.550 L 404 598 420.981 598 L 437.962 598 438.609 595.421 C 440.219 589.008, 436.850 576.885, 432.320 572.788 C 426.887 567.875, 414.050 566.431, 406.459 569.880 M 545.193 569.350 C 540.553 571.032, 535.539 576.257, 534.164 580.846 C 532.255 587.219, 532.701 605.745, 534.880 610.541 C 538.606 618.744, 546.489 622.621, 557.644 621.735 C 571.854 620.607, 577.913 612.470, 577.976 594.432 C 578.038 576.238, 570.989 567.978, 555.500 568.098 C 551.650 568.128, 547.012 568.691, 545.193 569.350 M 217.436 571.686 C 217.812 573.234, 221.546 584.981, 225.734 597.790 L 233.348 621.081 240.345 620.790 L 247.342 620.500 255.647 595 C 260.215 580.975, 263.963 569.388, 263.976 569.250 C 263.989 569.112, 262.006 569, 259.568 569 L 255.136 569 250.992 582.250 C 248.713 589.538, 245.465 599.910, 243.774 605.300 C 242.084 610.690, 240.355 614.740, 239.932 614.300 C 239.509 613.860, 236.067 603.600, 232.282 591.500 L 225.401 569.500 221.076 569.186 C 216.791 568.876, 216.758 568.899, 217.436 571.686 M 329 595 L 329 621 333 621 L 337 621 337 595 L 337 569 333 569 L 329 569 329 595 M 644 595.057 L 644 621.115 648.250 620.807 L 652.500 620.500 652.767 594.750 L 653.034 569 648.517 569 L 644 569 644 595.057 M 702.004 569.250 C 702.006 569.388, 705.779 580.525, 710.388 594 C 717.548 614.934, 719.076 618.547, 720.884 618.820 C 723.586 619.228, 723.573 619.372, 720 629.163 C 718.350 633.684, 717 637.773, 717 638.249 C 717 638.725, 718.913 638.977, 721.250 638.807 L 725.500 638.500 737.194 605 C 743.626 586.575, 748.913 570.912, 748.944 570.193 C 748.983 569.270, 747.777 568.976, 744.846 569.193 L 740.692 569.500 733.298 590.965 C 729.231 602.771, 725.728 612.605, 725.514 612.819 C 725.301 613.033, 721.904 603.261, 717.966 591.104 L 710.807 569 706.403 569 C 703.982 569, 702.002 569.112, 702.004 569.250 M 603.500 575.490 C 601.300 576.304, 599.365 576.977, 599.199 576.985 C 599.033 576.993, 598.246 578.561, 597.449 580.468 C 593.213 590.606, 598.772 599.003, 609.718 598.998 C 614.546 598.996, 620.116 596.213, 621.721 593 C 624.375 587.689, 622.455 578.384, 618.240 576.128 C 614.796 574.285, 607.597 573.973, 603.500 575.490 M 285.629 577.071 C 281.319 580.471, 280 584.724, 280.002 595.218 C 280.003 606.244, 281.693 610.597, 287 613.248 C 291.270 615.382, 295.914 615.481, 300.564 613.538 C 305.629 611.421, 307.951 605.767, 307.972 595.500 C 308.003 580.353, 305.064 575.851, 294.718 575.199 C 289.415 574.864, 288.077 575.140, 285.629 577.071 M 410.256 576.029 C 406.930 577.366, 404.008 582.844, 404.004 587.750 L 404 592 417 592 L 430 592 429.996 587.750 C 429.992 582.654, 427.032 577.343, 423.434 575.975 C 420.292 574.780, 413.291 574.809, 410.256 576.029 M 548.500 575.945 C 542.977 578.206, 540.604 585.008, 541.201 596.868 C 541.719 607.158, 543.639 611.533, 548.534 613.579 C 556.250 616.803, 564.820 614.069, 567.560 607.510 C 569.446 602.997, 569.485 587.097, 567.621 582.636 C 565.439 577.414, 561.595 574.989, 555.615 575.063 C 552.802 575.098, 549.600 575.495, 548.500 575.945 M 460 601 L 460 613 472.444 613 C 484.157 613, 485.053 612.858, 487.694 610.587 C 490.238 608.398, 490.500 607.561, 490.500 601.614 C 490.500 591.196, 486.911 589.069, 469.250 589.024 L 460 589 460 601 M 597.866 620.511 C 594.829 622.161, 593.479 626.158, 594.999 628.998 C 596.853 632.462, 600.108 633.416, 610.191 633.448 C 618.485 633.474, 620.288 633.177, 622.691 631.390 C 626.153 628.817, 626.786 625.021, 624.151 622.637 C 620.541 619.370, 602.632 617.922, 597.866 620.511 M 109 648.419 C 109 648.649, 110.575 652.124, 112.500 656.140 C 114.425 660.157, 116 664.963, 116 666.821 C 116 672.101, 118.726 676.616, 123.930 679.955 C 126.540 681.630, 128.979 683, 129.350 683 C 129.721 683, 128.974 681.313, 127.689 679.250 C 126.404 677.188, 123.146 670.393, 120.449 664.150 C 115.775 653.334, 112.340 648, 110.048 648 C 109.471 648, 109 648.188, 109 648.419 M 96.655 650.829 C 95.745 651.835, 95 652.984, 95 653.382 C 95 654.083, 105.947 668, 106.498 668 C 107.069 668, 101.715 651.440, 100.759 650.250 C 99.402 648.561, 98.606 648.673, 96.655 650.829" stroke="none" fill="#043464" fill-rule="evenodd"/></svg>