<?xml version="1.0" encoding="UTF-8"?>
<svg version="1.1" xmlns="http://www.w3.org/2000/svg" width="2000" height="1500">
<path d="M0 0 C660 0 1320 0 2000 0 C2000 495 2000 990 2000 1500 C1340 1500 680 1500 0 1500 C0 1005 0 510 0 0 Z " fill="#003366" transform="translate(0,0)"/>
<path d="M0 0 C0.87140625 0.67160156 1.7428125 1.34320313 2.640625 2.03515625 C3.52234375 2.70417969 4.4040625 3.37320312 5.3125 4.0625 C7.0695524 5.44950652 8.80864236 6.85950202 10.53125 8.2890625 C14.07192748 11.0031911 16.7510734 11.21635173 21.078125 11.16015625 C21.97917969 11.15113281 22.88023437 11.14210938 23.80859375 11.1328125 C24.83919922 11.11541016 24.83919922 11.11541016 25.890625 11.09765625 C26.70871409 33.23151095 26.70871409 33.23151095 21.890625 40.09765625 C17.55978835 43.72141753 13.91546331 45.21066281 8.32519531 45.25537109 C7.39862122 45.26563324 6.47204712 45.27589539 5.51739502 45.28646851 C4.51134216 45.29376984 3.50528931 45.30107117 2.46875 45.30859375 C0.30468085 45.33673275 -1.85938152 45.36539735 -4.0234375 45.39453125 C-7.40787028 45.43522583 -10.79218602 45.47212222 -14.17675781 45.49902344 C-34.59558241 45.67510013 -54.55174205 47.12396053 -74.359375 52.34765625 C-75.53628906 52.6513916 -76.71320313 52.95512695 -77.92578125 53.26806641 C-87.92263554 55.91614024 -97.57389866 59.1014436 -107.109375 63.09765625 C-108.26614746 63.58008789 -108.26614746 63.58008789 -109.44628906 64.07226562 C-132.09335771 73.64197097 -153.42512568 85.62270436 -174.37207031 98.43164062 C-178.05345821 100.67225702 -181.7643886 102.8594549 -185.484375 105.03515625 C-186.44778809 105.60314941 -186.44778809 105.60314941 -187.43066406 106.18261719 C-191.83535088 108.77797137 -196.26140538 111.33377077 -200.6953125 113.87890625 C-212.64037089 120.76677073 -224.11184848 127.4871111 -234.109375 137.09765625 C-235.50504653 138.4039096 -236.90230303 139.70847069 -238.30078125 141.01171875 C-241.26121426 143.77872906 -244.20791486 146.55929849 -247.14453125 149.3515625 C-251.04533634 153.05294181 -255.03045139 156.64331885 -259.046875 160.21875 C-261.55533119 162.50391559 -263.92941859 164.90104211 -266.3034668 167.32421875 C-268.06182998 169.0509661 -269.87885106 170.65152456 -271.75390625 172.25 C-276.42735455 176.31592148 -280.80425641 180.64531059 -285.171875 185.03515625 C-285.93564453 185.79505859 -286.69941406 186.55496094 -287.48632812 187.33789062 C-292.23494312 192.09462986 -296.74011618 196.99210526 -301.109375 202.09765625 C-301.97820312 203.08507812 -302.84703125 204.0725 -303.7421875 205.08984375 C-339.0512452 245.93323652 -359.38460294 294.05423957 -364.359375 347.72265625 C-365.98455406 364.63207225 -367.97094861 381.49879648 -369.95214844 398.36962891 C-370.20389485 400.52114496 -370.45552425 402.6726747 -370.70703125 404.82421875 C-370.82954254 405.86594742 -370.95205383 406.90767609 -371.07827759 407.98097229 C-371.6556483 412.94616991 -372.19899068 417.9103673 -372.65869141 422.88793945 C-372.74316025 423.79542938 -372.82762909 424.70291931 -372.91465759 425.63790894 C-373.06719052 427.31419459 -373.21294183 428.99111911 -373.35011292 430.66873169 C-374.09853615 438.93837739 -376.9504734 445.95256518 -380.76953125 453.28515625 C-381.58744141 454.89390625 -381.58744141 454.89390625 -382.421875 456.53515625 C-382.93363281 457.46199219 -383.44539062 458.38882812 -383.97265625 459.34375 C-386.9856037 469.29372423 -384.90055815 480.48466626 -383.32421875 490.57421875 C-383.14427872 491.78790131 -382.96433868 493.00158386 -382.77894592 494.25204468 C-382.21115222 498.07708871 -381.63035205 501.89997557 -381.046875 505.72265625 C-380.46071648 509.58115235 -379.87763197 513.43999152 -379.30409241 517.30038452 C-378.94890913 519.6898901 -378.58642086 522.07832396 -378.21580505 524.46548462 C-378.05556351 525.54115692 -377.89532196 526.61682922 -377.73022461 527.72509766 C-377.58588486 528.66882233 -377.4415451 529.612547 -377.29283142 530.58486938 C-377.11321544 533.04505407 -377.35474643 534.76681545 -378.109375 537.09765625 C-379.099375 536.43765625 -380.089375 535.77765625 -381.109375 535.09765625 C-383.65168347 534.68086328 -383.65168347 534.68086328 -386.109375 535.09765625 C-388.63609955 538.88774307 -388.55278745 540.58962967 -388.109375 545.09765625 C-387.14013261 548.04729659 -385.9693668 550.60357634 -384.109375 553.09765625 C-381.73759618 554.50568316 -381.73759618 554.50568316 -379.109375 554.09765625 C-377.41952789 553.13734666 -375.74938362 552.1408003 -374.109375 551.09765625 C-368.66122819 561.12865596 -364.27104826 571.48350288 -360.109375 582.09765625 C-355.93882612 592.70770042 -351.67022282 603.1247951 -346.109375 613.09765625 C-345.30693359 614.55171875 -345.30693359 614.55171875 -344.48828125 616.03515625 C-340.09200528 623.45716652 -334.39965183 629.459638 -328.47070312 635.65527344 C-326.70726226 637.52371114 -325.02868417 639.45752396 -323.359375 641.41015625 C-320.41593408 644.81797498 -317.26182955 647.96272953 -314.0546875 651.12109375 C-312.27421212 652.93017115 -310.62394914 654.78647574 -308.984375 656.72265625 C-301.76311954 665.10595282 -293.74596603 672.99088107 -285.296875 680.12890625 C-281.46101553 683.58117977 -277.88651974 687.30176773 -274.25756836 690.96899414 C-270.57473289 694.6756957 -266.82074473 698.21477616 -262.83203125 701.59375 C-260.42563833 703.69456921 -258.22066561 705.97460829 -255.98461914 708.25366211 C-254.16597641 710.04199807 -252.29212097 711.71525195 -250.359375 713.37890625 C-246.35417035 716.86185281 -242.46831944 720.45410617 -238.609375 724.09765625 C-237.21232819 725.41285454 -235.81519003 726.72795581 -234.41796875 728.04296875 C-233.70882324 728.71102539 -232.99967773 729.37908203 -232.26904297 730.06738281 C-230.12812988 732.08002505 -227.98121665 734.08604007 -225.83203125 736.08984375 C-219.47331078 742.02228128 -213.16991463 747.97500512 -207.06640625 754.171875 C-204.459498 756.73715597 -201.72083282 759.12566377 -198.93359375 761.4921875 C-197.109375 763.09765625 -197.109375 763.09765625 -195.265625 765.296875 C-193.19952193 767.36131869 -193.19952193 767.36131869 -190.19140625 767.41015625 C-181.83144553 766.6111158 -174.02651687 765.5293322 -168.109375 759.09765625 C-167.43973214 766.86551339 -167.43973214 766.86551339 -170.359375 770.41015625 C-172.54328362 772.54443058 -174.6558578 774.30994393 -177.109375 776.09765625 C-147.93192952 793.06220059 -121.23259141 800.78239753 -87.58105469 803.34228516 C-69.04188193 804.77032536 -50.92852181 807.56341878 -32.671875 811.03515625 C-31.33432663 811.28884979 -31.33432663 811.28884979 -29.96975708 811.54766846 C-20.1590278 813.41849761 -10.39158614 815.36684364 -0.7223053 817.88206482 C6.47120468 819.68059843 12.44446214 819.17119597 19.515625 817.28515625 C26.12011722 815.63605326 32.71497481 814.37783341 39.453125 813.41015625 C40.33718018 813.2824585 41.22123535 813.15476074 42.13208008 813.02319336 C46.98887039 812.36478966 51.75018826 811.99250249 56.64819336 811.89453125 C62.19290028 811.76805106 66.12981024 811.67648574 70.390625 807.91015625 C70.96941406 807.27078125 71.54820312 806.63140625 72.14453125 805.97265625 C74.03989484 803.93736649 75.94337334 802.81837516 78.328125 801.41015625 C81.14350065 799.39917364 81.79986045 798.4798486 82.61328125 795.0546875 C82.86374955 792.04554015 82.96874317 789.11497073 82.890625 786.09765625 C84.890625 786.09765625 84.890625 786.09765625 87.015625 788.09765625 C87.634375 788.75765625 88.253125 789.41765625 88.890625 790.09765625 C88.57979628 788.34735863 88.26689321 786.59742931 87.953125 784.84765625 C87.77910156 783.873125 87.60507813 782.89859375 87.42578125 781.89453125 C86.98682771 779.6004383 86.48713908 777.35473654 85.890625 775.09765625 C90.18579459 778.17980281 92.83617198 781.50667913 95.703125 785.84765625 C96.31317383 786.75064453 96.31317383 786.75064453 96.93554688 787.671875 C97.9275867 789.14242816 98.91010388 790.61939784 99.890625 792.09765625 C100.509375 791.14890625 101.128125 790.20015625 101.765625 789.22265625 C103.890625 786.09765625 103.890625 786.09765625 105.890625 784.09765625 C108.015625 784.47265625 108.015625 784.47265625 109.890625 785.09765625 C109.890625 785.75765625 109.890625 786.41765625 109.890625 787.09765625 C110.550625 787.09765625 111.210625 787.09765625 111.890625 787.09765625 C112.220625 783.13765625 112.550625 779.17765625 112.890625 775.09765625 C117.03255453 777.16862102 117.18206307 777.31441198 118.890625 781.09765625 C119.550625 781.42765625 120.210625 781.75765625 120.890625 782.09765625 C121.15875 781.00453125 121.426875 779.91140625 121.703125 778.78515625 C123.29488032 773.8423371 123.29488032 773.8423371 125.890625 772.09765625 C128.54058826 771.88044615 130.94139058 771.81414071 133.578125 771.91015625 C134.28001953 771.92369141 134.98191406 771.93722656 135.70507812 771.95117188 C137.43392329 771.98645443 139.16237265 772.04026042 140.890625 772.09765625 C141.220625 775.39765625 141.550625 778.69765625 141.890625 782.09765625 C149.03526169 780.85511074 153.50183608 776.75998872 158.890625 772.09765625 C163.890625 777.09765625 163.890625 777.09765625 165.29296875 778.71875 C167.96466665 781.02464085 170.311253 780.88903523 173.73901367 780.71801758 C177.54570315 779.96871105 180.3783636 778.34994854 183.61328125 776.3125 C184.25864334 775.91528244 184.90400543 775.51806488 185.56892395 775.10881042 C193.8876211 769.93698864 201.98270464 764.42179959 210.078125 758.91015625 C211.72622224 757.79185052 213.37441643 756.67368766 215.02270508 755.55566406 C226.38501047 747.84007804 237.71222358 740.07823731 248.890625 732.09765625 C250.02588623 731.28796387 250.02588623 731.28796387 251.18408203 730.46191406 C259.79741418 724.30670409 268.33534442 718.05847438 276.78662109 711.68261719 C281.11944293 708.41566312 285.48068603 705.19063415 289.85913086 701.98510742 C299.33508199 695.0451773 308.64010944 687.91131791 317.88476562 680.66699219 C328.11115081 672.66611537 338.48917414 664.86870169 348.890625 657.09765625 C350.15149014 661.03785983 349.890625 663.57345924 349.890625 668.09765625 C351.540625 663.14765625 353.190625 658.19765625 354.890625 653.09765625 C355.880625 653.42765625 356.870625 653.75765625 357.890625 654.09765625 C361.26311116 654.7652441 361.26311116 654.7652441 364.890625 654.09765625 C369.56715284 649.72611935 372.83993123 644.28267821 376.4309082 639.01245117 C383.65196006 628.5155591 392.43239855 620.28768693 402.890625 613.09765625 C403.890625 615.09765625 403.890625 615.09765625 403.09301758 617.57421875 C402.66142334 618.61320313 402.2298291 619.6521875 401.78515625 620.72265625 C401.06078369 622.47570068 401.06078369 622.47570068 400.32177734 624.26416016 C399.78289673 625.54227495 399.24332838 626.82009997 398.703125 628.09765625 C398.43252258 628.74369812 398.16192017 629.38973999 397.88311768 630.05535889 C386.7014851 656.74999557 374.42445523 682.64614316 358.890625 707.09765625 C358.23707031 708.12890625 357.58351563 709.16015625 356.91015625 710.22265625 C348.90248356 722.51588511 340.18674153 734.50528767 330.578125 745.59765625 C330.09069824 746.16194336 329.60327148 746.72623047 329.10107422 747.30761719 C326.8431616 749.90448449 324.55639286 752.45774869 322.21484375 754.98046875 C317.10157441 760.70537318 315.00148948 764.77344953 314.19921875 772.4296875 C313.63958715 777.26802146 311.91364691 780.15136098 308.390625 783.41015625 C303.42660421 786.76087028 298.17422827 786.3639049 292.40234375 786.43945312 C286.84075479 786.6503423 283.53304056 788.02113483 278.890625 791.09765625 C279.39774533 794.81653864 280.00670715 797.83219864 281.890625 801.09765625 C281.33375 800.80890625 280.776875 800.52015625 280.203125 800.22265625 C279.44 799.85140625 278.676875 799.48015625 277.890625 799.09765625 C277.189375 798.72640625 276.488125 798.35515625 275.765625 797.97265625 C265.90117658 794.97043282 257.10737063 798.65673788 247.890625 802.09765625 C248.39688568 806.05998985 249.18953049 807.80955971 252.203125 810.41015625 C256.86006551 814.78978408 259.62509385 819.81914736 260.890625 826.09765625 C260.92950849 828.43066558 260.9354885 830.76475426 260.890625 833.09765625 C255.65627495 828.82471743 251.21955685 824.28184819 246.890625 819.09765625 C231.2144654 826.50407368 219.3477735 841.44371689 208.44238281 854.54663086 C206.890625 856.09765625 206.890625 856.09765625 203.890625 857.09765625 C201.41794938 861.42904382 201.46117809 866.04984711 201.265625 870.91015625 C201.22695312 871.69841797 201.18828125 872.48667969 201.1484375 873.29882812 C201.05473656 875.23141005 200.97161721 877.16450001 200.890625 879.09765625 C199.64925781 879.07445312 198.40789063 879.05125 197.12890625 879.02734375 C195.4869852 879.00857894 193.84505762 878.9903795 192.203125 878.97265625 C191.38650391 878.95589844 190.56988281 878.93914063 189.72851562 878.921875 C183.54105723 878.82370638 183.54105723 878.82370638 177.890625 881.09765625 C174.44090247 885.20229299 174.36355284 889.28104902 174.203125 894.41015625 C174.15188477 895.52100586 174.15188477 895.52100586 174.09960938 896.65429688 C174.01768946 898.46823789 173.95246678 900.28291978 173.890625 902.09765625 C169.67745015 901.59295301 167.78787293 900.47679972 164.890625 897.41015625 C164.20742187 896.6934375 163.52421875 895.97671875 162.8203125 895.23828125 C161.1727017 893.41056724 159.57604395 891.56220539 158.015625 889.66015625 C156.14898459 887.05891106 156.14898459 887.05891106 153.890625 886.09765625 C146.68562803 885.58301361 140.23234009 887.18074282 133.265625 888.91015625 C132.15960937 889.17119141 131.05359375 889.43222656 129.9140625 889.70117188 C124.54912157 891.00694175 119.67214529 892.30424176 114.890625 895.09765625 C114.9525 897.01578125 114.9525 897.01578125 115.015625 898.97265625 C115.0859375 901.15234375 115.0859375 901.15234375 114.890625 903.09765625 C112.37245227 905.61582898 110.69905592 905.3711841 107.25390625 905.4609375 C101.89643959 904.63739304 97.04476938 901.69831882 92.29858398 899.19140625 C79.6518802 892.57268778 65.14385735 886.79293159 50.66015625 890.69921875 C50.05558594 890.91320313 49.45101563 891.1271875 48.828125 891.34765625 C43.95402104 892.83696579 39.63599293 890.74757964 34.953125 889.25390625 C30.3966205 887.87149371 25.77929642 887.12337702 21.078125 886.41015625 C20.30235107 886.2913208 19.52657715 886.17248535 18.72729492 886.05004883 C16.44972879 885.71332298 14.17441189 885.38984244 11.890625 885.09765625 C10.92005913 884.97155724 10.92005913 884.97155724 9.92988586 884.84291077 C4.46829425 884.17777671 -0.90331136 883.93796928 -6.40234375 883.9296875 C-7.26246063 883.92549805 -8.12257751 883.92130859 -9.00875854 883.91699219 C-11.77151149 883.9072792 -14.53410792 883.90719252 -17.296875 883.91015625 C-18.24166718 883.91042816 -19.18645935 883.91070007 -20.15988159 883.91098022 C-33.92023348 883.92923797 -47.44902711 884.34684784 -61.109375 886.09765625 C-64.47676019 886.50534363 -67.84468735 886.90836321 -71.21264648 887.3112793 C-73.41482709 887.57798485 -75.61623449 887.85118661 -77.81665039 888.13208008 C-79.30733032 888.32000122 -79.30733032 888.32000122 -80.828125 888.51171875 C-81.70404297 888.62467285 -82.57996094 888.73762695 -83.48242188 888.85400391 C-86.34692471 889.11968921 -89.23257727 889.09765625 -92.109375 889.09765625 C-92.439375 884.80765625 -92.769375 880.51765625 -93.109375 876.09765625 C-94.429375 877.08765625 -95.749375 878.07765625 -97.109375 879.09765625 C-102.35470324 880.14366785 -105.39641928 878.00666304 -109.62841797 875.23803711 C-110.8874292 874.39511108 -110.8874292 874.39511108 -112.171875 873.53515625 C-121.89023611 867.27373764 -131.9118256 861.85124813 -142.21801758 856.64770508 C-143.45524519 856.02295774 -144.69246852 855.39820193 -145.9296875 854.7734375 C-146.84070473 854.31430717 -146.84070473 854.31430717 -147.77012634 853.84590149 C-151.73314496 851.83561773 -155.61556441 849.71470465 -159.4765625 847.515625 C-169.59474942 841.80684961 -177.42957407 837.97884111 -189.1328125 838.1328125 C-205.21182533 837.99066013 -220.7555524 830.19091828 -232.73828125 819.92578125 C-240.78963445 813.71814814 -249.42933374 811.98004824 -259.38671875 811.9921875 C-260.80274943 811.97871215 -262.21876603 811.96368553 -263.63476562 811.94726562 C-265.82642598 811.92467119 -268.01649404 811.90998123 -270.20825195 811.92260742 C-287.96282527 811.99736777 -301.25946031 806.20909507 -314.34765625 794.01171875 C-327.20929734 780.57567428 -334.42611062 761.47116605 -337.77734375 743.51953125 C-339.34759911 735.36461392 -340.8096514 728.42994204 -347.609375 723.16015625 C-350.03997953 721.96403527 -350.03997953 721.96403527 -352.59741211 721.93847656 C-355.109375 721.09765625 -355.109375 721.09765625 -356.58813477 718.32324219 C-356.98830811 717.08864258 -357.38848145 715.85404297 -357.80078125 714.58203125 C-358.0272937 713.90766525 -358.25380615 713.23329926 -358.48718262 712.53849792 C-358.97614599 711.07855828 -359.45616637 709.61559984 -359.92825317 708.15011597 C-361.1917878 704.23786182 -362.5280136 700.35052668 -363.859375 696.4609375 C-364.26350365 695.27359764 -364.26350365 695.27359764 -364.67579651 694.06227112 C-368.87194565 681.8286333 -373.98686457 669.96783457 -379.109375 658.09765625 C-379.73948486 656.63610107 -379.73948486 656.63610107 -380.38232422 655.14501953 C-384.70314967 645.16658629 -389.14865395 635.24352593 -393.58992004 625.3183136 C-422.25404658 561.24014884 -422.25404658 561.24014884 -422.20703125 550.14453125 C-422.2056163 549.48430969 -422.20420135 548.82408813 -422.20274353 548.14385986 C-422.19716745 546.04507831 -422.18461947 543.9464053 -422.171875 541.84765625 C-422.1668569 540.42057446 -422.16229454 538.993491 -422.15820312 537.56640625 C-422.14720588 534.07678793 -422.1299578 530.58723269 -422.109375 527.09765625 C-418.809375 527.09765625 -415.509375 527.09765625 -412.109375 527.09765625 C-408.31452963 492.22122023 -430.08842772 443.62907716 -449.109375 415.09765625 C-449.34902477 406.83544508 -447.70821095 398.79245995 -445.98828125 390.7578125 C-444.77927315 384.70731988 -444.04429694 378.5865989 -443.234375 372.47265625 C-435.11640987 312.29551815 -435.11640987 312.29551815 -423.109375 287.09765625 C-422.58585449 285.99115723 -422.58585449 285.99115723 -422.05175781 284.86230469 C-416.60154026 273.53268225 -410.39799059 263.54899218 -402.109375 254.09765625 C-401.62710449 253.54384277 -401.14483398 252.9900293 -400.64794922 252.41943359 C-394.07797384 244.93906902 -387.05513053 238.08879277 -379.63476562 231.46142578 C-352.94333779 208.16835718 -352.94333779 208.16835718 -336.03491211 177.75878906 C-335.72690674 176.88834961 -335.41890137 176.01791016 -335.1015625 175.12109375 C-334.83714355 174.34685059 -334.57272461 173.57260742 -334.30029297 172.77490234 C-330.07896492 163.28513535 -323.12938932 156.70897257 -315.87109375 149.53125 C-314.66370584 148.32692647 -313.45691375 147.12200533 -312.25068665 145.91651917 C-309.72936266 143.39977906 -307.20323695 140.88800222 -304.6730957 138.38012695 C-301.44877215 135.18405307 -298.23315592 131.97939869 -295.02069378 128.77140713 C-291.9323001 125.68819917 -288.83925748 122.60967108 -285.74609375 119.53125 C-285.16597723 118.9530142 -284.58586071 118.3747784 -283.9881649 117.77902031 C-277.86339235 111.67988631 -271.69720979 105.70138662 -265.109375 100.09765625 C-263.52298211 98.64265173 -261.93917744 97.18481383 -260.359375 95.72265625 C-243.9978203 80.9592069 -243.9978203 80.9592069 -236.09692383 80.98413086 C-235.29632034 80.98420639 -234.49571686 80.98428192 -233.67085266 80.98435974 C-232.38165169 80.99210167 -232.38165169 80.99210167 -231.06640625 81 C-230.1828093 81.00141495 -229.29921234 81.0028299 -228.38883972 81.00428772 C-225.56648372 81.00988556 -222.74420703 81.02243764 -219.921875 81.03515625 C-218.00846469 81.04017153 -216.09505313 81.04473439 -214.18164062 81.04882812 C-209.49085486 81.05985428 -204.80012837 81.07711742 -200.109375 81.09765625 C-199.86268066 80.44031494 -199.61598633 79.78297363 -199.36181641 79.10571289 C-193.58823487 64.13314791 -183.6179884 53.31583257 -169.1640625 46.2890625 C-161.01829757 43.11200585 -154.22869346 42.91905934 -145.61914062 43.43945312 C-136.70351394 43.70712783 -131.20013784 40.15503488 -124.72265625 34.28515625 C-123.27997506 32.89871739 -121.84640265 31.50274084 -120.421875 30.09765625 C-106.13965964 16.23738638 -106.13965964 16.23738638 -101.109375 16.09765625 C-99.109375 18.09765625 -99.109375 18.09765625 -98.9140625 22.01171875 C-98.92737124 23.58214976 -98.95123898 25.15251846 -98.984375 26.72265625 C-98.99339844 27.52445312 -99.00242187 28.32625 -99.01171875 29.15234375 C-99.03531277 31.13424148 -99.07118435 33.11598606 -99.109375 35.09765625 C-98.20058594 34.46859375 -97.29179688 33.83953125 -96.35546875 33.19140625 C-95.08620674 32.3264277 -93.81665941 31.46186773 -92.546875 30.59765625 C-91.95712891 30.18773437 -91.36738281 29.7778125 -90.75976562 29.35546875 C-79.20395172 21.53307164 -66.66274167 15.7807561 -53.734375 10.66015625 C-53.05148407 10.3878418 -52.36859314 10.11552734 -51.66500854 9.83496094 C-48.16529766 8.44009016 -44.66159187 7.05602988 -41.15283203 5.68408203 C-38.5465751 4.66480295 -35.9461175 3.63294168 -33.35107422 2.58544922 C-29.96862921 1.22680828 -26.57388968 -0.09361849 -23.171875 -1.40234375 C-22.17945801 -1.80638428 -21.18704102 -2.2104248 -20.16455078 -2.62670898 C-12.00196877 -5.67237503 -7.29638928 -4.46399696 0 0 Z " fill="#FDFEFE" transform="translate(1005.109375,299.90234375)"/>
<path d="M0 0 C38.44856352 -1.28800559 71.92968917 6.32142759 106.74755859 23.0814209 C108.04948292 23.68723149 109.35156566 24.29270174 110.65380859 24.89782715 C128.52912389 33.36037479 144.83696687 44.12108251 159.74755859 57.0814209 C160.38725586 57.62903076 161.02695313 58.17664063 161.68603516 58.74084473 C166.6056596 62.98345113 171.27750001 67.42828916 175.87255859 72.0189209 C176.54931641 72.68343262 177.22607422 73.34794434 177.92333984 74.03259277 C185.50587827 81.59313158 191.08193674 89.99270519 196.68505859 99.0814209 C198.01699261 101.22731459 199.34902666 103.37314619 200.68115234 105.5189209 C201.35645996 106.60946777 202.03176758 107.70001465 202.72753906 108.8236084 C205.88662517 113.91846519 209.06762834 118.99955842 212.24755859 124.0814209 C213.49767578 126.08134765 214.74767549 128.08134784 215.99755859 130.0814209 C216.61630859 131.0714209 217.23505859 132.0614209 217.87255859 133.0814209 C238.49755859 166.0814209 238.49755859 166.0814209 240.37280273 169.08190918 C241.62187188 171.08035474 242.87105793 173.07872724 244.12036133 175.07702637 C247.26056995 180.10021425 250.39868777 185.1246861 253.53271484 190.1517334 C254.47002441 191.6525647 254.47002441 191.6525647 255.42626953 193.18371582 C256.67753668 195.19148391 257.92432116 197.20205294 259.16650391 199.2154541 C262.22438759 204.15123338 265.35160779 208.9949524 268.69677734 213.74157715 C269.33478271 214.67147461 269.97278809 215.60137207 270.63012695 216.55944824 C271.81147221 218.27347225 273.02142581 219.96842115 274.26928711 221.63464355 C279.79440162 229.76168726 280.37850617 238.60832571 281.41845703 248.13540649 C281.86498624 252.13259653 282.39339387 256.1176292 282.91699219 260.10533142 C283.45732882 264.25363677 283.97037832 268.40512779 284.48242188 272.55700684 C284.87322291 275.71178363 285.27327638 278.86530708 285.67333984 282.0189209 C287.93566035 300.13737249 288.92345985 318.0198773 288.81005859 336.2689209 C288.80501697 337.72399743 288.80045892 339.17907571 288.79638672 340.63415527 C288.78562971 344.11661517 288.7685234 347.59900561 288.74755859 351.0814209 C293.41576017 349.42409398 295.02335762 347.7555998 297.74755859 343.5814209 C300.39177299 339.52980207 302.03560141 337.45574174 306.74755859 336.0814209 C306.57740234 336.64087402 306.40724609 337.20032715 306.23193359 337.7767334 C305.70381392 339.52402296 305.18101025 341.27292255 304.66162109 343.02282715 C304.06651974 345.01412785 303.45781172 347.00142913 302.83349609 348.98376465 C294.84638686 375.25031495 290.62335987 403.66884081 289.74755859 431.0814209 C289.08755859 430.7514209 288.42755859 430.4214209 287.74755859 430.0814209 C286.37048283 423.02424957 286.55651064 415.93002812 286.56005859 408.7689209 C286.55897095 407.76872421 286.55897095 407.76872421 286.55786133 406.74832153 C286.55899044 397.34666174 286.97604417 388.15344867 288.31005859 378.84313965 C288.80821844 374.55985455 288.83666381 370.38631644 288.74755859 366.0814209 C288.19068359 366.7414209 287.63380859 367.4014209 287.06005859 368.0814209 C284.74755859 370.0814209 284.74755859 370.0814209 282.18505859 370.5814209 C279.74755859 370.0814209 279.74755859 370.0814209 278.11865234 368.42907715 C276.39921081 365.48496215 276.47969173 363.41009658 276.37255859 360.0189209 C275.69199626 354.8832488 274.55108923 352.29205364 270.52124023 348.95324707 C269.36754862 348.07048945 268.21173493 347.1904992 267.05395508 346.31311035 C256.42721145 338.20372486 249.33530701 326.54011056 242.74755859 315.0814209 C241.96800859 313.80383427 241.18804631 312.52649912 240.40771484 311.24938965 C233.96584992 300.39175202 233.96584992 300.39175202 235.18505859 295.0814209 C235.43126953 294.4626709 235.67748047 293.8439209 235.93115234 293.2064209 C239.54234564 283.80695128 239.3249442 269.89908512 235.68505859 260.5189209 C231.70945265 252.4355559 226.789964 247.66094118 219.31005859 242.7689209 C204.99553152 233.17859327 201.13464327 218.72948857 195.74755859 203.0814209 C195.45316895 202.26834473 195.1587793 201.45526855 194.85546875 200.61755371 C192.06678695 192.74581185 191.59154713 185.38236152 191.68505859 177.0814209 C191.68957031 176.30669434 191.69408203 175.53196777 191.69873047 174.73376465 C191.71036102 172.84961566 191.72828953 170.96550725 191.74755859 169.0814209 C190.55517578 169.64731934 189.36279297 170.21321777 188.13427734 170.79626465 C186.56791329 171.53723926 185.00150471 172.27811978 183.43505859 173.0189209 C182.649375 173.39210449 181.86369141 173.76528809 181.05419922 174.14978027 C180.296875 174.50749512 179.53955078 174.86520996 178.75927734 175.23376465 C177.71453247 175.7286438 177.71453247 175.7286438 176.64868164 176.23352051 C172.64389335 178.01965506 169.07093653 179.00043839 164.74755859 178.0814209 C160.81003058 176.16348557 157.29888606 173.62589286 153.74755859 171.0814209 C153.09319824 170.61478027 152.43883789 170.14813965 151.76464844 169.6673584 C147.97204284 166.95524988 144.19573068 164.22145645 140.42724609 161.47595215 C136.0639049 158.30122042 131.66327365 155.18272649 127.24755859 152.0814209 C121.38243028 147.95786411 115.55340312 143.78802086 109.74755859 139.5814209 C101.13075038 133.34274474 92.45818689 127.18828049 83.74755859 121.0814209 C82.85343262 120.45300293 81.95930664 119.82458496 81.03808594 119.17712402 C68.76392646 110.55621174 56.43205001 102.08727124 43.74755859 94.0814209 C42.3846167 93.21734619 42.3846167 93.21734619 40.99414062 92.33581543 C30.43639821 85.64953536 19.83845981 79.03245956 9.06005859 72.7064209 C8.28871582 72.24815918 7.51737305 71.78989746 6.72265625 71.31774902 C0.50354875 67.71449339 -4.17623884 67.03843699 -11.37744141 66.8314209 C-32.63321933 65.74436515 -52.30534645 57.9511117 -66.89697266 42.31970215 C-71.87719595 36.62186743 -72.70504101 32.45887913 -72.56884766 24.9954834 C-72.00278062 19.78207591 -69.51621677 17.21881873 -65.75244141 13.8314209 C-57.01278789 7.71366343 -45.5536018 8.40222351 -35.25244141 9.0814209 C-32.29024501 9.80720121 -30.00347857 10.73397412 -27.25244141 12.0814209 C-27.06294922 11.17263184 -27.06294922 11.17263184 -26.86962891 10.2454834 C-25.6609539 6.00747105 -22.82746475 3.46476979 -19.25244141 1.0814209 C-16.70296004 0.7789463 -14.24816203 0.58478429 -11.68994141 0.4798584 C-10.9376123 0.44315033 -10.1852832 0.40644226 -9.41015625 0.36862183 C-6.27413754 0.22427044 -3.13725842 0.11340512 0 0 Z " fill="#FDFEFE" transform="translate(1137.25244140625,323.9185791015625)"/>
<path d="M0 0 C5.61 -0.0825 11.22 -0.165 17 -0.25 C18.75441406 -0.28641602 20.50882813 -0.32283203 22.31640625 -0.36035156 C23.73175845 -0.3720513 25.14712428 -0.38224007 26.5625 -0.390625 C27.27728516 -0.41108887 27.99207031 -0.43155273 28.72851562 -0.45263672 C35.40573626 -0.45718523 40.56742425 1.7447594 45.46484375 6.28515625 C48.5165922 11.68201419 47.76807996 18.02604475 47 24 C45.14307119 28.2129531 42.06478821 30.08051668 38 32 C38.81404297 32.32871094 38.81404297 32.32871094 39.64453125 32.6640625 C43.1662099 34.22502277 45.56554043 35.45692554 48 38.5 C49.79369073 44.77791757 50.17766682 51.82412232 47.75 58 C43.90247244 64.59576153 41.73090696 65.10090989 34 68 C22.78 68 11.56 68 0 68 C0 45.56 0 23.12 0 0 Z " fill="#F5F7F9" transform="translate(968,778)"/>
<path d="M0 0 C0.7239798 0.0028299 1.44795959 0.00565979 2.19387817 0.00857544 C4.4861974 0.01969163 6.77811313 0.04477938 9.0703125 0.0703125 C10.63280682 0.0803534 12.19530732 0.08947731 13.7578125 0.09765625 C17.57046588 0.11960277 21.38282098 0.15407237 25.1953125 0.1953125 C25.1953125 2.1753125 25.1953125 4.1553125 25.1953125 6.1953125 C21.5653125 6.5253125 17.9353125 6.8553125 14.1953125 7.1953125 C14.9996875 7.9790625 15.8040625 8.7628125 16.6328125 9.5703125 C20.89334311 13.93475849 20.53641164 17.28876973 20.47265625 23.2109375 C20.09864853 27.23547132 18.96922545 29.27540413 16.1953125 32.1953125 C11.5670608 35.69011481 8.06031252 37.26770644 2.30859375 37.51171875 C1.37080078 37.55361328 0.43300781 37.59550781 -0.53320312 37.63867188 C-1.50966797 37.67798828 -2.48613281 37.71730469 -3.4921875 37.7578125 C-4.48025391 37.80099609 -5.46832031 37.84417969 -6.48632812 37.88867188 C-8.92564296 37.99472904 -11.36505863 38.09678964 -13.8046875 38.1953125 C-12.4957303 41.31728728 -12.4957303 41.31728728 -9.8046875 43.1953125 C-8.06477924 43.4378154 -6.3184457 43.63504634 -4.5703125 43.80859375 C-2.99636719 43.9797168 -2.99636719 43.9797168 -1.390625 44.15429688 C0.81667622 44.38820877 3.02503979 44.61232292 5.234375 44.82617188 C12.60148826 45.65024383 16.62992337 46.86761598 22.0703125 51.9453125 C23.75799793 55.32068337 23.7204173 58.54145826 23.1953125 62.1953125 C21.31957715 66.78044336 18.41281054 68.73510531 14.1953125 71.1953125 C9.40364253 72.79253582 4.5261653 72.4214298 -0.4921875 72.4453125 C-2.08836914 72.47625 -2.08836914 72.47625 -3.71679688 72.5078125 C-10.14034938 72.53955334 -15.00612764 72.0377438 -20.8046875 69.1953125 C-23.5236548 66.13647428 -24.64672744 64.16281788 -25.3046875 60.1328125 C-24.52380096 55.5451041 -22.09501825 53.23474561 -18.5546875 50.3828125 C-17.6884375 49.795 -17.6884375 49.795 -16.8046875 49.1953125 C-18.073125 48.1434375 -18.073125 48.1434375 -19.3671875 47.0703125 C-21.8046875 44.1953125 -21.8046875 44.1953125 -21.8046875 41.0078125 C-20.8046875 38.1953125 -20.8046875 38.1953125 -17.8046875 36.1953125 C-16.4846875 36.1953125 -15.1646875 36.1953125 -13.8046875 36.1953125 C-13.8046875 35.5353125 -13.8046875 34.8753125 -13.8046875 34.1953125 C-14.5471875 34.0303125 -15.2896875 33.8653125 -16.0546875 33.6953125 C-19.47261306 31.83098947 -20.50940119 30.17976922 -22.07421875 26.6796875 C-23.87578309 20.55244195 -23.89442165 14.45550184 -21.1171875 8.6953125 C-14.813957 1.88100926 -9.22332699 -0.13781009 0 0 Z " fill="#F6F8FA" transform="translate(1127.8046875,792.8046875)"/>
<path d="M0 0 C1.06009277 0.01027222 1.06009277 0.01027222 2.14160156 0.02075195 C9.17281302 0.23733403 13.40782189 1.72032189 18.4375 6.75 C22.74889577 13.61629697 23.60236775 18.87325402 23.5 26.875 C23.51160156 27.77798828 23.52320313 28.68097656 23.53515625 29.61132812 C23.50561292 36.41121846 22.74190547 42.23472017 18.29296875 47.6796875 C17.63941406 48.21851563 16.98585938 48.75734375 16.3125 49.3125 C15.34376953 50.14394531 15.34376953 50.14394531 14.35546875 50.9921875 C7.83384245 55.21810997 0.63485946 55.17196058 -6.875 54.4375 C-12.82770981 52.76389468 -16.44933254 49.47524627 -19.875 44.4375 C-22.52066703 38.62631557 -22.2063968 32.69612027 -22.1875 26.4375 C-22.20361328 25.37015625 -22.21972656 24.3028125 -22.23632812 23.203125 C-22.240853 15.92712336 -21.42396848 11.39981472 -16.5625 5.75 C-11.38119431 1.2916672 -6.7614856 -0.09999831 0 0 Z " fill="#F6F8FA" transform="translate(1071.875,792.5625)"/>
<path d="M0 0 C4.70174246 2.91258382 7.5883447 7.26503411 9.3125 12.4375 C9.62579624 16.66144711 9.63656956 20.89082802 9.6875 25.125 C9.74357422 26.86426758 9.74357422 26.86426758 9.80078125 28.63867188 C9.87539773 35.9303606 9.16573232 40.83949151 4.3125 46.4375 C-0.7089766 51.4589766 -6.20997739 52.53002003 -13.125 52.75 C-19.24990992 52.59080262 -23.96910369 51.82281218 -28.6640625 47.703125 C-36.44676837 39.44000518 -36.30159714 30.06629161 -36.0625 19.2890625 C-35.70064609 12.54048703 -33.90318985 7.43505772 -28.90234375 2.7734375 C-21.51023207 -2.84519516 -8.57730622 -3.8597878 0 0 Z " fill="#F7F8FA" transform="translate(823.6875,794.5625)"/>
<path d="M0 0 C6.26613321 3.77392114 8.99730401 8.10909953 11.3125 15.0546875 C11.3125 19.6746875 11.3125 24.2946875 11.3125 29.0546875 C-0.2375 29.0546875 -11.7875 29.0546875 -23.6875 29.0546875 C-22.64418508 37.90091399 -22.64418508 37.90091399 -17.6875 43.0546875 C-11.40604622 46.19541439 -0.17255239 44.53001955 6.3125 42.5546875 C7.65433811 42.07798186 8.99210705 41.58792312 10.3125 41.0546875 C10.3125 44.3046875 10.3125 44.3046875 9.3125 48.0546875 C1.90948951 53.66504074 -6.79887304 53.56825261 -15.6875 53.0546875 C-21.87907691 52.06876761 -25.23346758 48.95578108 -29.2421875 44.28515625 C-33.06837382 38.38042006 -33.02396021 32.48438771 -33 25.6796875 C-33.01611328 24.7721875 -33.03222656 23.8646875 -33.04882812 22.9296875 C-33.05362517 16.27139382 -32.42772723 10.34804644 -28.00390625 5.03125 C-27.42511719 4.58523438 -26.84632813 4.13921875 -26.25 3.6796875 C-25.67378906 3.21820312 -25.09757813 2.75671875 -24.50390625 2.28125 C-17.71418396 -2.30363774 -7.74151494 -2.72303287 0 0 Z " fill="#F4F6F8" transform="translate(944.6875,793.9453125)"/>
<path d="M0 0 C2.97 0 5.94 0 9 0 C9.22042969 1.25103516 9.22042969 1.25103516 9.4453125 2.52734375 C11.52104462 12.94179284 14.85069941 20.60366176 23.8046875 26.71484375 C32.84252715 32.0056787 40.8688666 33.5061233 51.0625 30.875 C59.70167093 27.95911028 66.475985 22.98612295 71 15 C73.09950115 10.150564 74.32770805 5.24387722 75 0 C77.97 0 80.94 0 84 0 C83.2586602 12.97344648 78.7888616 22.92831119 69.40234375 32.03515625 C62.44118709 37.72859007 54.93660273 40.70211324 46 41 C46 45.62 46 50.24 46 55 C52.6 55 59.2 55 66 55 C66 57.97 66 60.94 66 64 C50.16 64 34.32 64 18 64 C18 61.03 18 58.06 18 55 C24.6 55 31.2 55 38 55 C38 50.38 38 45.76 38 41 C36.576875 40.95875 35.15375 40.9175 33.6875 40.875 C22.44749938 39.68600135 13.95445367 32.51104619 7 24 C2.2789582 16.66354537 -0.43966718 8.79334364 0 0 Z " fill="#F99665" transform="translate(958,697)"/>
<path d="M0 0 C14.52 0 29.04 0 44 0 C44 26.46406571 44 26.46406571 39.09765625 32.2421875 C38.42605469 32.78101563 37.75445313 33.31984375 37.0625 33.875 C36.05896484 34.70644531 36.05896484 34.70644531 35.03515625 35.5546875 C28.74055722 40.02494017 22.5558236 39.68218293 15 39 C9.41290336 37.38852308 5.07356612 32.8149364 2 28 C0 22 0 22 0 0 Z " fill="#FE9865" transform="translate(978,679)"/>
<path d="M0 0 C1.65 0 3.3 0 5 0 C5 4.95 5 9.9 5 15 C6.32 15 7.64 15 9 15 C9 10.05 9 5.1 9 0 C10.65 0 12.3 0 14 0 C14 4.95 14 9.9 14 15 C15.32 15 16.64 15 18 15 C18 11.04 18 7.08 18 3 C22.07170114 5.03585057 24.60730576 7.19122141 27 11 C29 17 29 17 29 39 C14.48 39 -0.04 39 -15 39 C-15.103125 35.205 -15.20625 31.41 -15.3125 27.5 C-15.35802002 26.31986328 -15.40354004 25.13972656 -15.45043945 23.92382812 C-15.56291516 15.32633036 -13.36308924 10.84353056 -7.8125 4.5 C-6 3 -6 3 -4 3 C-4 6.96 -4 10.92 -4 15 C-2.68 15 -1.36 15 0 15 C0 10.05 0 5.1 0 0 Z " fill="#FA9765" transform="translate(993,635)"/>
<path d="M0 0 C2.97 0 5.94 0 9 0 C13.66666667 14 18.33333333 28 23 42 C24.66378603 39.50432095 25.50734029 37.84541028 26.42041016 35.0793457 C26.68052887 34.29876297 26.94064758 33.51818024 27.20864868 32.71394348 C27.48268524 31.87634995 27.7567218 31.03875641 28.0390625 30.17578125 C28.32478119 29.31438034 28.61049988 28.45297943 28.90487671 27.56547546 C29.81581978 24.81586351 30.7204793 22.06423056 31.625 19.3125 C32.24177458 17.44712904 32.85895717 15.58189294 33.4765625 13.71679688 C34.98911267 9.14608218 36.49603099 4.5735451 38 0 C40.97 0 43.94 0 47 0 C45.68462682 6.43645182 43.93366757 12.50227671 41.734375 18.6875 C41.41849426 19.58887695 41.10261353 20.49025391 40.77716064 21.41894531 C39.7729046 24.28101015 38.76159215 27.14052099 37.75 30 C37.086771 31.88655408 36.42400705 33.77327172 35.76171875 35.66015625 C34.46694689 39.34649693 33.167932 43.03129677 31.86523438 46.71484375 C30.63906565 50.18321315 29.42172944 53.65445977 28.21289062 57.12890625 C27.93600403 57.92200195 27.65911743 58.71509766 27.37384033 59.53222656 C26.8559069 61.0164632 26.34012735 62.50145379 25.82684326 63.98730469 C24.11236562 68.88763438 24.11236562 68.88763438 23 70 C20.32941149 70.14115161 17.67567762 70.04247107 15 70 C16.36874156 63.04223041 18.4533129 56.61396893 21 50 C19.35 50 17.7 50 16 50 C15.67563965 48.7929541 15.67563965 48.7929541 15.34472656 47.56152344 C12.59676246 37.61878742 9.24831777 27.95044832 5.75 18.25 C4.91874216 15.94020128 4.08883412 13.62995501 3.26275635 11.31829834 C2.75396414 9.89485309 2.24216644 8.47247759 1.72698975 7.05133057 C0 2.22472549 0 2.22472549 0 0 Z " fill="#F5F7F9" transform="translate(1219,794)"/>
<path d="M0 0 C4.6668173 1.78729173 6.64766138 4.65833797 9 9 C9.54783347 12.32816958 9.51460918 15.57205727 9.4375 18.9375 C9.44458984 19.80568359 9.45167969 20.67386719 9.45898438 21.56835938 C9.40445276 27.11799973 8.62384333 31.09232239 6 36 C1.88892195 39.85413567 -2.27821465 40.35690418 -7.71484375 40.27734375 C-11.33744393 39.83767775 -13.32756608 38.41791641 -16 36 C-19.43172453 30.72168084 -19.45552919 26.084428 -19.375 20 C-19.38660156 19.1234375 -19.39820313 18.246875 -19.41015625 17.34375 C-19.38112824 10.91888399 -18.23095594 6.64926018 -14 1.625 C-9.41916118 -0.85628769 -5.09737148 -0.62275579 0 0 Z " fill="#033668" transform="translate(1077,800)"/>
<path d="M0 0 C3.78986889 1.57911204 5.83327915 3.53324664 8 7 C9.40887142 11.22661426 9.30464628 15.25841355 9.375 19.6875 C9.41238281 20.56083984 9.44976563 21.43417969 9.48828125 22.33398438 C9.57471748 28.7638792 8.19115974 33.05575354 4 38 C-0.08847662 40.72565108 -5.22959585 40.66465948 -10 40 C-14.55889158 37.88940205 -16.5206687 35.74040646 -18.39355469 31.10229492 C-19.55002258 27.09329934 -19.47133998 23.08135993 -19.4375 18.9375 C-19.4674707 17.62942383 -19.4674707 17.62942383 -19.49804688 16.29492188 C-19.49381153 10.70002761 -18.79556831 7.38258063 -15 3 C-10.63907288 -1.22715635 -5.73831628 -0.630959 0 0 Z " fill="#033568" transform="translate(816,800)"/>
<path d="M0 0 C1.09183594 -0.00515625 2.18367188 -0.0103125 3.30859375 -0.015625 C6.67951578 0.25955231 9.41125625 1.05224219 12.5625 2.25 C13.0575 5.715 13.0575 5.715 13.5625 9.25 C12.593125 9.085 11.62375 8.92 10.625 8.75 C1.77340079 7.47569867 1.77340079 7.47569867 -6.4375 10.25 C-8.18285599 13.36803399 -8.18285599 13.36803399 -7.4375 22.25 C-0.5075 22.25 6.4225 22.25 13.5625 22.25 C13.2325 24.56 12.9025 26.87 12.5625 29.25 C6.2925 29.25 0.0225 29.25 -6.4375 29.25 C-6.4375 43.44 -6.4375 57.63 -6.4375 72.25 C-9.4075 72.25 -12.3775 72.25 -15.4375 72.25 C-15.4375 58.06 -15.4375 43.87 -15.4375 29.25 C-18.0775 29.25 -20.7175 29.25 -23.4375 29.25 C-23.4375 26.94 -23.4375 24.63 -23.4375 22.25 C-20.1375 22.25 -16.8375 22.25 -13.4375 22.25 C-13.9325 21.610625 -14.4275 20.97125 -14.9375 20.3125 C-16.95639276 16.19059396 -17.28730427 12.76111052 -16.4375 8.25 C-14.73999353 4.95278579 -12.50791202 2.7888844 -9.1640625 1.10546875 C-5.98769773 0.10887293 -3.32609776 -0.01567066 0 0 Z " fill="#F4F6F8" transform="translate(1201.4375,773.75)"/>
<path d="M0 0 C2.97 0 5.94 0 9 0 C10.8586356 5.90595911 12.70984272 11.81417547 14.55419922 17.72460938 C15.1826939 19.73501362 15.81321513 21.7447855 16.44580078 23.75390625 C17.3546221 26.64158969 18.2561353 29.53146758 19.15625 32.421875 C19.44060913 33.31992859 19.72496826 34.21798218 20.01794434 35.14324951 C20.27821411 35.98381897 20.53848389 36.82438843 20.80664062 37.69042969 C21.03758423 38.42767273 21.26852783 39.16491577 21.50646973 39.92449951 C22 42 22 42 22 46 C22.66 46 23.32 46 24 46 C24.11102051 45.45110107 24.22204102 44.90220215 24.33642578 44.33666992 C25.49546473 38.84263818 27.02897804 33.61072377 28.875 28.3125 C31.18183164 21.56170789 33.26518462 14.8028091 35.140625 7.91796875 C35.9429461 5.19372392 36.89779961 2.61530882 38 0 C40.97 0 43.94 0 47 0 C46.53944214 1.46469727 46.53944214 1.46469727 46.06958008 2.95898438 C44.90456326 6.66418109 43.73973245 10.36943626 42.57495117 14.07470703 C42.07565109 15.66293854 41.57630393 17.25115526 41.0769043 18.83935547 C40.59169212 20.38245724 40.10657466 21.9255888 39.62155151 23.46875 C39.13683472 25.01053313 38.65174756 26.55219987 38.16629028 28.09375 C36.95109121 31.95608265 35.74499123 35.82087161 34.55615234 39.69140625 C34.21314339 40.80364563 34.21314339 40.80364563 33.86320496 41.93835449 C33.42951999 43.3461588 32.99834673 44.75473999 32.57002258 46.16418457 C31.11180331 50.88819669 31.11180331 50.88819669 30 52 C27.64686445 52.07271741 25.29166332 52.08370868 22.9375 52.0625 C21.64714844 52.05347656 20.35679687 52.04445313 19.02734375 52.03515625 C18.02832031 52.02355469 17.02929688 52.01195312 16 52 C3.06944444 15.34722222 3.06944444 15.34722222 0 0 Z " fill="#F5F7F9" transform="translate(734,794)"/>
<path d="M0 0 C2.17578125 1.1015625 2.17578125 1.1015625 5.23828125 3.1015625 C5.23828125 5.4115625 5.23828125 7.7215625 5.23828125 10.1015625 C4.70460938 9.885 4.1709375 9.6684375 3.62109375 9.4453125 C-2.2032797 7.26873003 -7.54936464 6.16285365 -13.76171875 7.1015625 C-17.48285336 8.82923214 -19.22526448 9.89176564 -20.89453125 13.65625 C-21.99590482 18.03197742 -22.12972845 22.10679658 -22.13671875 26.6015625 C-22.16121094 27.43042969 -22.18570313 28.25929688 -22.2109375 29.11328125 C-22.23711652 34.60214971 -21.45712528 37.77913754 -17.76171875 42.1015625 C-12.88404807 45.35334295 -7.46980251 44.56492459 -1.76171875 44.1015625 C1.14801777 43.35470135 3.50680653 42.38696237 6.23828125 41.1015625 C6.32373755 46.22894077 6.32373755 46.22894077 5.23828125 49.1015625 C0.16882139 53.47427195 -6.56475735 53.66569381 -12.9609375 53.421875 C-19.42694665 52.6823872 -23.49439724 50.08010426 -27.76171875 45.1015625 C-33.59355827 36.77036318 -32.72627581 24.86744787 -31.76171875 15.1015625 C-30.07044092 9.00313745 -27.23316832 4.46860839 -21.76171875 1.1015625 C-21.20097656 0.74835937 -20.64023437 0.39515625 -20.0625 0.03125 C-14.33370933 -2.28360939 -5.84521819 -1.90155613 0 0 Z " fill="#F2F5F7" transform="translate(897.76171875,793.8984375)"/>
<path d="M0 0 C3.50625 -0.061875 7.0125 -0.12375 10.625 -0.1875 C11.71893066 -0.21481201 12.81286133 -0.24212402 13.93994141 -0.27026367 C19.35076755 -0.31642097 23.4138569 -0.21898056 28 3 C30.99163411 5.99163411 31.43170826 8.26165891 31.4375 12.4375 C31.34048824 16.26180579 31.13604107 17.77326488 29.125 21.125 C25.73106482 24.11964869 23.78912216 24.12014708 19.3359375 24.09765625 C18.21445312 24.09443359 17.09296875 24.09121094 15.9375 24.08789062 C14.761875 24.07951172 13.58625 24.07113281 12.375 24.0625 C11.19164062 24.05798828 10.00828125 24.05347656 8.7890625 24.04882812 C5.85935361 24.03701478 2.92967059 24.0190789 0 24 C0 16.08 0 8.16 0 0 Z " fill="#043668" transform="translate(977,814)"/>
<path d="M0 0 C3.320625 -0.061875 6.64125 -0.12375 10.0625 -0.1875 C11.09511963 -0.21481201 12.12773926 -0.24212402 13.19165039 -0.27026367 C18.92743413 -0.32171808 22.94552058 0.2281887 28 3 C30.45161513 5.87798298 30.41135972 9.2539624 30.328125 12.96484375 C29.79173147 16.29176075 28.11151942 18.45375599 26 21 C23.39048764 22.30475618 21.47298715 22.11301572 18.5546875 22.09765625 C16.94013672 22.09282227 16.94013672 22.09282227 15.29296875 22.08789062 C14.16503906 22.07951172 13.03710938 22.07113281 11.875 22.0625 C10.73933594 22.05798828 9.60367188 22.05347656 8.43359375 22.04882812 C5.62237353 22.03701628 2.81118028 22.01908041 0 22 C0 14.74 0 7.48 0 0 Z " fill="#043668" transform="translate(977,785)"/>
<path d="M0 0 C3.21092411 1.7628603 4.3565052 2.6750058 6.1875 5.75 C7.02106677 10.78894868 6.98069591 15.31049632 4.5 19.8125 C-0.17411395 23.72864953 -4.40269544 24.19982797 -10.37109375 24.06640625 C-14.04312342 23.59051121 -16.1217501 22.23894365 -18.8125 19.75 C-21.26700274 15.73354097 -21.39871991 11.33740341 -20.8125 6.75 C-19.42515239 3.28163098 -18.22252674 2.02652966 -15.125 -0.0625 C-9.8044811 -1.96985583 -5.22293901 -2.00543228 0 0 Z " fill="#07386A" transform="translate(1133.8125,800.25)"/>
<path d="M0 0 C2.64 0 5.28 0 8 0 C8 22.77 8 45.54 8 69 C5.36 69 2.72 69 0 69 C0 46.23 0 23.46 0 0 Z " fill="#FFFFFF" transform="translate(1029,776)"/>
<path d="M0 0 C2.97 0 5.94 0 9 0 C9 17.16 9 34.32 9 52 C6.03 52 3.06 52 0 52 C0 34.84 0 17.68 0 0 Z " fill="#F1F3F6" transform="translate(1161,794)"/>
<path d="M0 0 C2.64 0 5.28 0 8 0 C8 16.83 8 33.66 8 51 C5.36 51 2.72 51 0 51 C0 34.17 0 17.34 0 0 Z " fill="#FEFEFE" transform="translate(846,794)"/>
<path d="M0 0 C1.28970703 0.04640625 1.28970703 0.04640625 2.60546875 0.09375 C6.42115031 0.34940706 8.69172017 0.8238401 12.0625 2.75 C14 5 14 5 14.5 7.5625 C13.89376414 10.51789983 13.4952038 11.30970065 11 13 C2.92141973 16.26580904 -6.92141973 16.26580904 -15 13 C-17 11.8125 -17 11.8125 -18 10 C-18 6.5 -18 6.5 -17 3 C-11.66669267 -1.12291134 -6.42382405 -0.32649678 0 0 Z " fill="#083A6B" transform="translate(1129,844)"/>
<path d="M0 0 C4.21992783 1.75830326 5.1503256 3.20043413 8 7 C8 10.3 8 13.6 8 17 C-0.58 17 -9.16 17 -18 17 C-18 6.68571429 -18 6.68571429 -14 2 C-9.53862011 -0.97425326 -5.23225066 -0.49867492 0 0 Z " fill="#053769" transform="translate(939,800)"/>
<path d="M0 0 C3.75975825 0.92857587 4.85246985 1.76648421 6.95703125 5.09765625 C7.59230983 6.41128314 8.20982883 7.73359747 8.8125 9.0625 C9.14507813 9.76117187 9.47765625 10.45984375 9.8203125 11.1796875 C10.52640671 12.6685678 11.2249318 14.1610573 11.91650391 15.65673828 C13.02701788 18.0584312 14.15747744 20.44986819 15.29296875 22.83984375 C17.21189896 26.88561964 19.11081212 30.94025582 21 35 C15.35067428 33.22338446 11.65028367 31.50598631 8.3125 26.4375 C7.15324203 23.40134818 6.61413354 20.93161175 6.125 17.75 C5.30432722 12.57834652 3.54869555 8.55761479 1.0234375 3.99609375 C0 2 0 2 0 0 Z " fill="#144372" transform="translate(626,873)"/>
<path d="M0 0 C3.0625 0.3125 3.0625 0.3125 4.9375 1.5 C6.44582602 3.93008081 6.42273622 5.50265752 6.0625 8.3125 C4.0625 10.3125 4.0625 10.3125 0.5625 10.5625 C-2.9375 10.3125 -2.9375 10.3125 -4.9375 8.3125 C-5.1875 5.3125 -5.1875 5.3125 -4.9375 2.3125 C-2.9375 0.3125 -2.9375 0.3125 0 0 Z " fill="#EEF1F5" transform="translate(1164.9375,774.6875)"/>
<path d="M0 0 C3 0.25 3 0.25 5 2.25 C5.25 5.25 5.25 5.25 5 8.25 C3 10.25 3 10.25 -0.5625 10.4375 C-4 10.25 -4 10.25 -5 9.25 C-5.1875 5.8125 -5.1875 5.8125 -5 2.25 C-3 0.25 -3 0.25 0 0 Z " fill="#F8F9FB" transform="translate(850,774.75)"/>
<path d="M0 0 C1.03205859 2.7671136 2.05090829 5.53791254 3.0625 8.3125 C3.35705078 9.09818359 3.65160156 9.88386719 3.95507812 10.69335938 C4.22900391 11.45068359 4.50292969 12.20800781 4.78515625 12.98828125 C5.04176025 13.68477783 5.29836426 14.38127441 5.56274414 15.09887695 C6 17 6 17 5 20 C3.3459856 17.92272602 1.70180656 15.83882992 0.0625 13.75 C-0.40607422 13.16347656 -0.87464844 12.57695313 -1.35742188 11.97265625 C-3.64624085 9.04165066 -5.45694 6.71162271 -6 3 C-4.04862098 0.26806937 -3.44686768 0 0 0 Z " fill="#194775" transform="translate(618,874)"/>
</svg>
